<?xml version="1.0" encoding="utf-8" standalone="no"?>
<!DOCTYPE svg PUBLIC "-//W3C//DTD SVG 1.1//EN"
  "http://www.w3.org/Graphics/SVG/1.1/DTD/svg11.dtd">
<svg xmlns:xlink="http://www.w3.org/1999/xlink" width="1000.8pt" height="338.4pt" viewBox="0 0 1000.8 338.4" xmlns="http://www.w3.org/2000/svg" version="1.1">
 <metadata>
  <rdf:RDF xmlns:dc="http://purl.org/dc/elements/1.1/" xmlns:cc="http://creativecommons.org/ns#" xmlns:rdf="http://www.w3.org/1999/02/22-rdf-syntax-ns#">
   <cc:Work>
    <dc:type rdf:resource="http://purl.org/dc/dcmitype/StillImage"/>
    <dc:date>2026-05-31T18:23:12.958019</dc:date>
    <dc:format>image/svg+xml</dc:format>
    <dc:creator>
     <cc:Agent>
      <dc:title>Matplotlib v3.10.9, https://matplotlib.org/</dc:title>
     </cc:Agent>
    </dc:creator>
   </cc:Work>
  </rdf:RDF>
 </metadata>
 <defs>
  <style type="text/css">*{stroke-linejoin: round; stroke-linecap: butt}</style>
 </defs>
 <g id="figure_1">
  <g id="patch_1">
   <path d="M 0 338.4 
L 1000.8 338.4 
L 1000.8 0 
L 0 0 
z
" style="fill: #ffffff"/>
  </g>
  <g id="axes_1">
   <g id="patch_2">
    <path d="M 37.496571 182.808 
L 135.432 182.808 
Q 145.296 182.808 145.296 173.736 
L 145.296 90.144 
Q 145.296 81.072 135.432 81.072 
L 37.496571 81.072 
Q 27.632571 81.072 27.632571 90.144 
L 27.632571 173.736 
Q 27.632571 182.808 37.496571 182.808 
z
" clip-path="url(#pa901158d21)" style="fill: #dbeafe; stroke: #334155; stroke-width: 1.4; stroke-linejoin: miter"/>
   </g>
   <g id="patch_3">
    <path d="M 140.251158 131.94 
Q 143.888985 131.94 145.849761 131.94 
" clip-path="url(#pa901158d21)" style="fill: none; stroke: #475569; stroke-width: 1.5; stroke-linecap: round"/>
    <path d="M 140.249761 129.14 
L 145.849761 131.94 
L 140.249761 134.74 
z
" clip-path="url(#pa901158d21)" style="fill: #475569; stroke: #475569; stroke-width: 1.5; stroke-linecap: round"/>
   </g>
   <g id="patch_4">
    <path d="M 153.750857 182.808 
L 251.686286 182.808 
Q 261.550286 182.808 261.550286 173.736 
L 261.550286 90.144 
Q 261.550286 81.072 251.686286 81.072 
L 153.750857 81.072 
Q 143.886857 81.072 143.886857 90.144 
L 143.886857 173.736 
Q 143.886857 182.808 153.750857 182.808 
z
" clip-path="url(#pa901158d21)" style="fill: #e0f2fe; stroke: #334155; stroke-width: 1.4; stroke-linejoin: miter"/>
   </g>
   <g id="patch_5">
    <path d="M 256.503724 131.94 
Q 263.665508 131.94 269.150242 131.94 
" clip-path="url(#pa901158d21)" style="fill: none; stroke: #475569; stroke-width: 1.5; stroke-linecap: round"/>
    <path d="M 263.550242 129.14 
L 269.150242 131.94 
L 263.550242 134.74 
z
" clip-path="url(#pa901158d21)" style="fill: #475569; stroke: #475569; stroke-width: 1.5; stroke-linecap: round"/>
   </g>
   <g id="patch_6">
    <path d="M 277.050857 182.808 
L 374.986286 182.808 
Q 384.850286 182.808 384.850286 173.736 
L 384.850286 90.144 
Q 384.850286 81.072 374.986286 81.072 
L 277.050857 81.072 
Q 267.186857 81.072 267.186857 90.144 
L 267.186857 173.736 
Q 267.186857 182.808 277.050857 182.808 
z
" clip-path="url(#pa901158d21)" style="fill: #ccfbf1; stroke: #334155; stroke-width: 1.4; stroke-linejoin: miter"/>
   </g>
   <g id="patch_7">
    <path d="M 379.806906 131.94 
Q 388.726393 131.94 395.968829 131.94 
" clip-path="url(#pa901158d21)" style="fill: none; stroke: #475569; stroke-width: 1.5; stroke-linecap: round"/>
    <path d="M 390.368829 129.14 
L 395.968829 131.94 
L 390.368829 134.74 
z
" clip-path="url(#pa901158d21)" style="fill: #475569; stroke: #475569; stroke-width: 1.5; stroke-linecap: round"/>
   </g>
   <g id="patch_8">
    <path d="M 403.873714 182.808 
L 501.809143 182.808 
Q 511.673143 182.808 511.673143 173.736 
L 511.673143 90.144 
Q 511.673143 81.072 501.809143 81.072 
L 403.873714 81.072 
Q 394.009714 81.072 394.009714 90.144 
L 394.009714 173.736 
Q 394.009714 182.808 403.873714 182.808 
z
" clip-path="url(#pa901158d21)" style="fill: #dcfce7; stroke: #334155; stroke-width: 1.4; stroke-linejoin: miter"/>
   </g>
   <g id="patch_9">
    <path d="M 506.629763 131.94 
Q 515.54925 131.94 522.791686 131.94 
" clip-path="url(#pa901158d21)" style="fill: none; stroke: #475569; stroke-width: 1.5; stroke-linecap: round"/>
    <path d="M 517.191686 129.14 
L 522.791686 131.94 
L 517.191686 134.74 
z
" clip-path="url(#pa901158d21)" style="fill: #475569; stroke: #475569; stroke-width: 1.5; stroke-linecap: round"/>
   </g>
   <g id="patch_10">
    <path d="M 530.696571 182.808 
L 628.632 182.808 
Q 638.496 182.808 638.496 173.736 
L 638.496 90.144 
Q 638.496 81.072 628.632 81.072 
L 530.696571 81.072 
Q 520.832571 81.072 520.832571 90.144 
L 520.832571 173.736 
Q 520.832571 182.808 530.696571 182.808 
z
" clip-path="url(#pa901158d21)" style="fill: #fef9c3; stroke: #334155; stroke-width: 1.4; stroke-linejoin: miter"/>
   </g>
   <g id="patch_11">
    <path d="M 633.44789 131.94 
Q 638.845651 131.94 642.566361 131.94 
" clip-path="url(#pa901158d21)" style="fill: none; stroke: #475569; stroke-width: 1.5; stroke-linecap: round"/>
    <path d="M 636.966361 129.14 
L 642.566361 131.94 
L 636.966361 134.74 
z
" clip-path="url(#pa901158d21)" style="fill: #475569; stroke: #475569; stroke-width: 1.5; stroke-linecap: round"/>
   </g>
   <g id="patch_12">
    <path d="M 650.473714 182.808 
L 748.409143 182.808 
Q 758.273143 182.808 758.273143 173.736 
L 758.273143 90.144 
Q 758.273143 81.072 748.409143 81.072 
L 650.473714 81.072 
Q 640.609714 81.072 640.609714 90.144 
L 640.609714 173.736 
Q 640.609714 182.808 650.473714 182.808 
z
" clip-path="url(#pa901158d21)" style="fill: #ffedd5; stroke: #334155; stroke-width: 1.4; stroke-linejoin: miter"/>
   </g>
   <g id="patch_13">
    <path d="M 753.226581 131.94 
Q 760.388366 131.94 765.873099 131.94 
" clip-path="url(#pa901158d21)" style="fill: none; stroke: #475569; stroke-width: 1.5; stroke-linecap: round"/>
    <path d="M 760.273099 129.14 
L 765.873099 131.94 
L 760.273099 134.74 
z
" clip-path="url(#pa901158d21)" style="fill: #475569; stroke: #475569; stroke-width: 1.5; stroke-linecap: round"/>
   </g>
   <g id="patch_14">
    <path d="M 773.773714 182.808 
L 871.709143 182.808 
Q 881.573143 182.808 881.573143 173.736 
L 881.573143 90.144 
Q 881.573143 81.072 871.709143 81.072 
L 773.773714 81.072 
Q 763.909714 81.072 763.909714 90.144 
L 763.909714 173.736 
Q 763.909714 182.808 773.773714 182.808 
z
" clip-path="url(#pa901158d21)" style="fill: #fae8ff; stroke: #334155; stroke-width: 1.4; stroke-linejoin: miter"/>
   </g>
   <g id="patch_15">
    <path d="M 872.526556 131.94 
Q 872.117849 131.94 873.386194 131.94 
" clip-path="url(#pa901158d21)" style="fill: none; stroke: #475569; stroke-width: 1.5; stroke-linecap: round"/>
    <path d="M 878.986194 134.74 
L 873.386194 131.94 
L 878.986194 129.14 
z
" clip-path="url(#pa901158d21)" style="fill: #475569; stroke: #475569; stroke-width: 1.5; stroke-linecap: round"/>
   </g>
   <g id="patch_16">
    <path d="M 875.936571 182.808 
L 973.872 182.808 
Q 983.736 182.808 983.736 173.736 
L 983.736 90.144 
Q 983.736 81.072 973.872 81.072 
L 875.936571 81.072 
Q 866.072571 81.072 866.072571 90.144 
L 866.072571 173.736 
Q 866.072571 182.808 875.936571 182.808 
z
" clip-path="url(#pa901158d21)" style="fill: #fce7f3; stroke: #334155; stroke-width: 1.4; stroke-linejoin: miter"/>
   </g>
   <g id="patch_17">
    <path d="M 396.828 307.224 
L 727.272 307.224 
Q 738.545143 307.224 738.545143 296.856 
L 738.545143 235.944 
Q 738.545143 225.576 727.272 225.576 
L 396.828 225.576 
Q 385.554857 225.576 385.554857 235.944 
L 385.554857 296.856 
Q 385.554857 307.224 396.828 307.224 
z
" clip-path="url(#pa901158d21)" style="fill: #f5f3ff; stroke: #7c3aed; stroke-width: 1.2; stroke-linejoin: miter"/>
   </g>
   <g id="patch_18">
    <path d="M 452.489143 176.380444 
Q 452.489143 204.836758 452.489143 231.951432 
" clip-path="url(#pa901158d21)" style="fill: none; opacity: 0.85; stroke: #7c3aed; stroke-width: 1.2; stroke-linecap: round"/>
    <path d="M 454.889143 227.151432 
L 452.489143 231.951432 
L 450.089143 227.151432 
z
" clip-path="url(#pa901158d21)" style="fill: #7c3aed; opacity: 0.85; stroke: #7c3aed; stroke-width: 1.2; stroke-linecap: round"/>
   </g>
   <g id="patch_19">
    <path d="M 579.312 176.380444 
Q 579.312 204.836758 579.312 231.951432 
" clip-path="url(#pa901158d21)" style="fill: none; opacity: 0.85; stroke: #7c3aed; stroke-width: 1.2; stroke-linecap: round"/>
    <path d="M 581.712 227.151432 
L 579.312 231.951432 
L 576.912 227.151432 
z
" clip-path="url(#pa901158d21)" style="fill: #7c3aed; opacity: 0.85; stroke: #7c3aed; stroke-width: 1.2; stroke-linecap: round"/>
   </g>
   <g id="patch_20">
    <path d="M 699.089143 176.380444 
Q 699.089143 204.836758 699.089143 231.951432 
" clip-path="url(#pa901158d21)" style="fill: none; opacity: 0.85; stroke: #7c3aed; stroke-width: 1.2; stroke-linecap: round"/>
    <path d="M 701.489143 227.151432 
L 699.089143 231.951432 
L 696.689143 227.151432 
z
" clip-path="url(#pa901158d21)" style="fill: #7c3aed; opacity: 0.85; stroke: #7c3aed; stroke-width: 1.2; stroke-linecap: round"/>
   </g>
   <g id="text_1">
    <!-- Data -->
    <g style="fill: #0f172a" transform="translate(71.846317 120.395312) scale(0.11 -0.11)">
     <defs>
      <path id="DejaVuSans-Bold-44" d="M 1791 3756 
L 1791 909 
L 2222 909 
Q 2959 909 3348 1275 
Q 3738 1641 3738 2338 
Q 3738 3031 3350 3393 
Q 2963 3756 2222 3756 
L 1791 3756 
z
M 588 4666 
L 1856 4666 
Q 2919 4666 3439 4514 
Q 3959 4363 4331 4000 
Q 4659 3684 4818 3271 
Q 4978 2859 4978 2338 
Q 4978 1809 4818 1395 
Q 4659 981 4331 666 
Q 3956 303 3431 151 
Q 2906 0 1856 0 
L 588 0 
L 588 4666 
z
" transform="scale(0.015625)"/>
      <path id="DejaVuSans-Bold-61" d="M 2106 1575 
Q 1756 1575 1579 1456 
Q 1403 1338 1403 1106 
Q 1403 894 1545 773 
Q 1688 653 1941 653 
Q 2256 653 2472 879 
Q 2688 1106 2688 1447 
L 2688 1575 
L 2106 1575 
z
M 3816 1997 
L 3816 0 
L 2688 0 
L 2688 519 
Q 2463 200 2181 54 
Q 1900 -91 1497 -91 
Q 953 -91 614 226 
Q 275 544 275 1050 
Q 275 1666 698 1953 
Q 1122 2241 2028 2241 
L 2688 2241 
L 2688 2328 
Q 2688 2594 2478 2717 
Q 2269 2841 1825 2841 
Q 1466 2841 1156 2769 
Q 847 2697 581 2553 
L 581 3406 
Q 941 3494 1303 3539 
Q 1666 3584 2028 3584 
Q 2975 3584 3395 3211 
Q 3816 2838 3816 1997 
z
" transform="scale(0.015625)"/>
      <path id="DejaVuSans-Bold-74" d="M 1759 4494 
L 1759 3500 
L 2913 3500 
L 2913 2700 
L 1759 2700 
L 1759 1216 
Q 1759 972 1856 886 
Q 1953 800 2241 800 
L 2816 800 
L 2816 0 
L 1856 0 
Q 1194 0 917 276 
Q 641 553 641 1216 
L 641 2700 
L 84 2700 
L 84 3500 
L 641 3500 
L 641 4494 
L 1759 4494 
z
" transform="scale(0.015625)"/>
     </defs>
     <use xlink:href="#DejaVuSans-Bold-44"/>
     <use xlink:href="#DejaVuSans-Bold-61" transform="translate(83.007812 0)"/>
     <use xlink:href="#DejaVuSans-Bold-74" transform="translate(150.488281 0)"/>
     <use xlink:href="#DejaVuSans-Bold-61" transform="translate(198.291016 0)"/>
    </g>
   </g>
   <g id="text_2">
    <!-- clinical literals -->
    <g style="fill: #334155" transform="translate(56.030301 142.486398) scale(0.085 -0.085)">
     <defs>
      <path id="DejaVuSans-63" d="M 3122 3366 
L 3122 2828 
Q 2878 2963 2633 3030 
Q 2388 3097 2138 3097 
Q 1578 3097 1268 2742 
Q 959 2388 959 1747 
Q 959 1106 1268 751 
Q 1578 397 2138 397 
Q 2388 397 2633 464 
Q 2878 531 3122 666 
L 3122 134 
Q 2881 22 2623 -34 
Q 2366 -91 2075 -91 
Q 1284 -91 818 406 
Q 353 903 353 1747 
Q 353 2603 823 3093 
Q 1294 3584 2113 3584 
Q 2378 3584 2631 3529 
Q 2884 3475 3122 3366 
z
" transform="scale(0.015625)"/>
      <path id="DejaVuSans-6c" d="M 603 4863 
L 1178 4863 
L 1178 0 
L 603 0 
L 603 4863 
z
" transform="scale(0.015625)"/>
      <path id="DejaVuSans-69" d="M 603 3500 
L 1178 3500 
L 1178 0 
L 603 0 
L 603 3500 
z
M 603 4863 
L 1178 4863 
L 1178 4134 
L 603 4134 
L 603 4863 
z
" transform="scale(0.015625)"/>
      <path id="DejaVuSans-6e" d="M 3513 2113 
L 3513 0 
L 2938 0 
L 2938 2094 
Q 2938 2591 2744 2837 
Q 2550 3084 2163 3084 
Q 1697 3084 1428 2787 
Q 1159 2491 1159 1978 
L 1159 0 
L 581 0 
L 581 3500 
L 1159 3500 
L 1159 2956 
Q 1366 3272 1645 3428 
Q 1925 3584 2291 3584 
Q 2894 3584 3203 3211 
Q 3513 2838 3513 2113 
z
" transform="scale(0.015625)"/>
      <path id="DejaVuSans-61" d="M 2194 1759 
Q 1497 1759 1228 1600 
Q 959 1441 959 1056 
Q 959 750 1161 570 
Q 1363 391 1709 391 
Q 2188 391 2477 730 
Q 2766 1069 2766 1631 
L 2766 1759 
L 2194 1759 
z
M 3341 1997 
L 3341 0 
L 2766 0 
L 2766 531 
Q 2569 213 2275 61 
Q 1981 -91 1556 -91 
Q 1019 -91 701 211 
Q 384 513 384 1019 
Q 384 1609 779 1909 
Q 1175 2209 1959 2209 
L 2766 2209 
L 2766 2266 
Q 2766 2663 2505 2880 
Q 2244 3097 1772 3097 
Q 1472 3097 1187 3025 
Q 903 2953 641 2809 
L 641 3341 
Q 956 3463 1253 3523 
Q 1550 3584 1831 3584 
Q 2591 3584 2966 3190 
Q 3341 2797 3341 1997 
z
" transform="scale(0.015625)"/>
      <path id="DejaVuSans-20" transform="scale(0.015625)"/>
      <path id="DejaVuSans-74" d="M 1172 4494 
L 1172 3500 
L 2356 3500 
L 2356 3053 
L 1172 3053 
L 1172 1153 
Q 1172 725 1289 603 
Q 1406 481 1766 481 
L 2356 481 
L 2356 0 
L 1766 0 
Q 1100 0 847 248 
Q 594 497 594 1153 
L 594 3053 
L 172 3053 
L 172 3500 
L 594 3500 
L 594 4494 
L 1172 4494 
z
" transform="scale(0.015625)"/>
      <path id="DejaVuSans-65" d="M 3597 1894 
L 3597 1613 
L 953 1613 
Q 991 1019 1311 708 
Q 1631 397 2203 397 
Q 2534 397 2845 478 
Q 3156 559 3463 722 
L 3463 178 
Q 3153 47 2828 -22 
Q 2503 -91 2169 -91 
Q 1331 -91 842 396 
Q 353 884 353 1716 
Q 353 2575 817 3079 
Q 1281 3584 2069 3584 
Q 2775 3584 3186 3129 
Q 3597 2675 3597 1894 
z
M 3022 2063 
Q 3016 2534 2758 2815 
Q 2500 3097 2075 3097 
Q 1594 3097 1305 2825 
Q 1016 2553 972 2059 
L 3022 2063 
z
" transform="scale(0.015625)"/>
      <path id="DejaVuSans-72" d="M 2631 2963 
Q 2534 3019 2420 3045 
Q 2306 3072 2169 3072 
Q 1681 3072 1420 2755 
Q 1159 2438 1159 1844 
L 1159 0 
L 581 0 
L 581 3500 
L 1159 3500 
L 1159 2956 
Q 1341 3275 1631 3429 
Q 1922 3584 2338 3584 
Q 2397 3584 2469 3576 
Q 2541 3569 2628 3553 
L 2631 2963 
z
" transform="scale(0.015625)"/>
      <path id="DejaVuSans-73" d="M 2834 3397 
L 2834 2853 
Q 2591 2978 2328 3040 
Q 2066 3103 1784 3103 
Q 1356 3103 1142 2972 
Q 928 2841 928 2578 
Q 928 2378 1081 2264 
Q 1234 2150 1697 2047 
L 1894 2003 
Q 2506 1872 2764 1633 
Q 3022 1394 3022 966 
Q 3022 478 2636 193 
Q 2250 -91 1575 -91 
Q 1294 -91 989 -36 
Q 684 19 347 128 
L 347 722 
Q 666 556 975 473 
Q 1284 391 1588 391 
Q 1994 391 2212 530 
Q 2431 669 2431 922 
Q 2431 1156 2273 1281 
Q 2116 1406 1581 1522 
L 1381 1569 
Q 847 1681 609 1914 
Q 372 2147 372 2553 
Q 372 3047 722 3315 
Q 1072 3584 1716 3584 
Q 2034 3584 2315 3537 
Q 2597 3491 2834 3397 
z
" transform="scale(0.015625)"/>
     </defs>
     <use xlink:href="#DejaVuSans-63"/>
     <use xlink:href="#DejaVuSans-6c" transform="translate(54.980469 0)"/>
     <use xlink:href="#DejaVuSans-69" transform="translate(82.763672 0)"/>
     <use xlink:href="#DejaVuSans-6e" transform="translate(110.546875 0)"/>
     <use xlink:href="#DejaVuSans-69" transform="translate(173.925781 0)"/>
     <use xlink:href="#DejaVuSans-63" transform="translate(201.708984 0)"/>
     <use xlink:href="#DejaVuSans-61" transform="translate(256.689453 0)"/>
     <use xlink:href="#DejaVuSans-6c" transform="translate(317.96875 0)"/>
     <use xlink:href="#DejaVuSans-20" transform="translate(345.751953 0)"/>
     <use xlink:href="#DejaVuSans-6c" transform="translate(377.539062 0)"/>
     <use xlink:href="#DejaVuSans-69" transform="translate(405.322266 0)"/>
     <use xlink:href="#DejaVuSans-74" transform="translate(433.105469 0)"/>
     <use xlink:href="#DejaVuSans-65" transform="translate(472.314453 0)"/>
     <use xlink:href="#DejaVuSans-72" transform="translate(533.837891 0)"/>
     <use xlink:href="#DejaVuSans-61" transform="translate(574.951172 0)"/>
     <use xlink:href="#DejaVuSans-6c" transform="translate(636.230469 0)"/>
     <use xlink:href="#DejaVuSans-73" transform="translate(664.013672 0)"/>
    </g>
    <!-- + ICD codes -->
    <g style="fill: #334155" transform="translate(60.243114 152.004539) scale(0.085 -0.085)">
     <defs>
      <path id="DejaVuSans-2b" d="M 2944 4013 
L 2944 2272 
L 4684 2272 
L 4684 1741 
L 2944 1741 
L 2944 0 
L 2419 0 
L 2419 1741 
L 678 1741 
L 678 2272 
L 2419 2272 
L 2419 4013 
L 2944 4013 
z
" transform="scale(0.015625)"/>
      <path id="DejaVuSans-49" d="M 628 4666 
L 1259 4666 
L 1259 0 
L 628 0 
L 628 4666 
z
" transform="scale(0.015625)"/>
      <path id="DejaVuSans-43" d="M 4122 4306 
L 4122 3641 
Q 3803 3938 3442 4084 
Q 3081 4231 2675 4231 
Q 1875 4231 1450 3742 
Q 1025 3253 1025 2328 
Q 1025 1406 1450 917 
Q 1875 428 2675 428 
Q 3081 428 3442 575 
Q 3803 722 4122 1019 
L 4122 359 
Q 3791 134 3420 21 
Q 3050 -91 2638 -91 
Q 1578 -91 968 557 
Q 359 1206 359 2328 
Q 359 3453 968 4101 
Q 1578 4750 2638 4750 
Q 3056 4750 3426 4639 
Q 3797 4528 4122 4306 
z
" transform="scale(0.015625)"/>
      <path id="DejaVuSans-44" d="M 1259 4147 
L 1259 519 
L 2022 519 
Q 2988 519 3436 956 
Q 3884 1394 3884 2338 
Q 3884 3275 3436 3711 
Q 2988 4147 2022 4147 
L 1259 4147 
z
M 628 4666 
L 1925 4666 
Q 3281 4666 3915 4102 
Q 4550 3538 4550 2338 
Q 4550 1131 3912 565 
Q 3275 0 1925 0 
L 628 0 
L 628 4666 
z
" transform="scale(0.015625)"/>
      <path id="DejaVuSans-6f" d="M 1959 3097 
Q 1497 3097 1228 2736 
Q 959 2375 959 1747 
Q 959 1119 1226 758 
Q 1494 397 1959 397 
Q 2419 397 2687 759 
Q 2956 1122 2956 1747 
Q 2956 2369 2687 2733 
Q 2419 3097 1959 3097 
z
M 1959 3584 
Q 2709 3584 3137 3096 
Q 3566 2609 3566 1747 
Q 3566 888 3137 398 
Q 2709 -91 1959 -91 
Q 1206 -91 779 398 
Q 353 888 353 1747 
Q 353 2609 779 3096 
Q 1206 3584 1959 3584 
z
" transform="scale(0.015625)"/>
      <path id="DejaVuSans-64" d="M 2906 2969 
L 2906 4863 
L 3481 4863 
L 3481 0 
L 2906 0 
L 2906 525 
Q 2725 213 2448 61 
Q 2172 -91 1784 -91 
Q 1150 -91 751 415 
Q 353 922 353 1747 
Q 353 2572 751 3078 
Q 1150 3584 1784 3584 
Q 2172 3584 2448 3432 
Q 2725 3281 2906 2969 
z
M 947 1747 
Q 947 1113 1208 752 
Q 1469 391 1925 391 
Q 2381 391 2643 752 
Q 2906 1113 2906 1747 
Q 2906 2381 2643 2742 
Q 2381 3103 1925 3103 
Q 1469 3103 1208 2742 
Q 947 2381 947 1747 
z
" transform="scale(0.015625)"/>
     </defs>
     <use xlink:href="#DejaVuSans-2b"/>
     <use xlink:href="#DejaVuSans-20" transform="translate(83.789062 0)"/>
     <use xlink:href="#DejaVuSans-49" transform="translate(115.576172 0)"/>
     <use xlink:href="#DejaVuSans-43" transform="translate(145.068359 0)"/>
     <use xlink:href="#DejaVuSans-44" transform="translate(214.892578 0)"/>
     <use xlink:href="#DejaVuSans-20" transform="translate(291.894531 0)"/>
     <use xlink:href="#DejaVuSans-63" transform="translate(323.681641 0)"/>
     <use xlink:href="#DejaVuSans-6f" transform="translate(378.662109 0)"/>
     <use xlink:href="#DejaVuSans-64" transform="translate(439.84375 0)"/>
     <use xlink:href="#DejaVuSans-65" transform="translate(503.320312 0)"/>
     <use xlink:href="#DejaVuSans-73" transform="translate(564.84375 0)"/>
    </g>
   </g>
   <g id="text_3">
    <!-- Light preprocessing -->
    <g style="fill: #0f172a" transform="translate(140.850446 120.352344) scale(0.11 -0.11)">
     <defs>
      <path id="DejaVuSans-Bold-4c" d="M 588 4666 
L 1791 4666 
L 1791 909 
L 3903 909 
L 3903 0 
L 588 0 
L 588 4666 
z
" transform="scale(0.015625)"/>
      <path id="DejaVuSans-Bold-69" d="M 538 3500 
L 1656 3500 
L 1656 0 
L 538 0 
L 538 3500 
z
M 538 4863 
L 1656 4863 
L 1656 3950 
L 538 3950 
L 538 4863 
z
" transform="scale(0.015625)"/>
      <path id="DejaVuSans-Bold-67" d="M 2919 594 
Q 2688 288 2409 144 
Q 2131 0 1766 0 
Q 1125 0 706 504 
Q 288 1009 288 1791 
Q 288 2575 706 3076 
Q 1125 3578 1766 3578 
Q 2131 3578 2409 3434 
Q 2688 3291 2919 2981 
L 2919 3500 
L 4044 3500 
L 4044 353 
Q 4044 -491 3511 -936 
Q 2978 -1381 1966 -1381 
Q 1638 -1381 1331 -1331 
Q 1025 -1281 716 -1178 
L 716 -306 
Q 1009 -475 1290 -558 
Q 1572 -641 1856 -641 
Q 2406 -641 2662 -400 
Q 2919 -159 2919 353 
L 2919 594 
z
M 2181 2772 
Q 1834 2772 1640 2515 
Q 1447 2259 1447 1791 
Q 1447 1309 1634 1061 
Q 1822 813 2181 813 
Q 2531 813 2725 1069 
Q 2919 1325 2919 1791 
Q 2919 2259 2725 2515 
Q 2531 2772 2181 2772 
z
" transform="scale(0.015625)"/>
      <path id="DejaVuSans-Bold-68" d="M 4056 2131 
L 4056 0 
L 2931 0 
L 2931 347 
L 2931 1625 
Q 2931 2084 2911 2256 
Q 2891 2428 2841 2509 
Q 2775 2619 2662 2680 
Q 2550 2741 2406 2741 
Q 2056 2741 1856 2470 
Q 1656 2200 1656 1722 
L 1656 0 
L 538 0 
L 538 4863 
L 1656 4863 
L 1656 2988 
Q 1909 3294 2193 3439 
Q 2478 3584 2822 3584 
Q 3428 3584 3742 3212 
Q 4056 2841 4056 2131 
z
" transform="scale(0.015625)"/>
      <path id="DejaVuSans-Bold-20" transform="scale(0.015625)"/>
      <path id="DejaVuSans-Bold-70" d="M 1656 506 
L 1656 -1331 
L 538 -1331 
L 538 3500 
L 1656 3500 
L 1656 2988 
Q 1888 3294 2169 3439 
Q 2450 3584 2816 3584 
Q 3463 3584 3878 3070 
Q 4294 2556 4294 1747 
Q 4294 938 3878 423 
Q 3463 -91 2816 -91 
Q 2450 -91 2169 54 
Q 1888 200 1656 506 
z
M 2400 2772 
Q 2041 2772 1848 2508 
Q 1656 2244 1656 1747 
Q 1656 1250 1848 986 
Q 2041 722 2400 722 
Q 2759 722 2948 984 
Q 3138 1247 3138 1747 
Q 3138 2247 2948 2509 
Q 2759 2772 2400 2772 
z
" transform="scale(0.015625)"/>
      <path id="DejaVuSans-Bold-72" d="M 3138 2547 
Q 2991 2616 2845 2648 
Q 2700 2681 2553 2681 
Q 2122 2681 1889 2404 
Q 1656 2128 1656 1613 
L 1656 0 
L 538 0 
L 538 3500 
L 1656 3500 
L 1656 2925 
Q 1872 3269 2151 3426 
Q 2431 3584 2822 3584 
Q 2878 3584 2943 3579 
Q 3009 3575 3134 3559 
L 3138 2547 
z
" transform="scale(0.015625)"/>
      <path id="DejaVuSans-Bold-65" d="M 4031 1759 
L 4031 1441 
L 1416 1441 
Q 1456 1047 1700 850 
Q 1944 653 2381 653 
Q 2734 653 3104 758 
Q 3475 863 3866 1075 
L 3866 213 
Q 3469 63 3072 -14 
Q 2675 -91 2278 -91 
Q 1328 -91 801 392 
Q 275 875 275 1747 
Q 275 2603 792 3093 
Q 1309 3584 2216 3584 
Q 3041 3584 3536 3087 
Q 4031 2591 4031 1759 
z
M 2881 2131 
Q 2881 2450 2695 2645 
Q 2509 2841 2209 2841 
Q 1884 2841 1681 2658 
Q 1478 2475 1428 2131 
L 2881 2131 
z
" transform="scale(0.015625)"/>
      <path id="DejaVuSans-Bold-6f" d="M 2203 2784 
Q 1831 2784 1636 2517 
Q 1441 2250 1441 1747 
Q 1441 1244 1636 976 
Q 1831 709 2203 709 
Q 2569 709 2762 976 
Q 2956 1244 2956 1747 
Q 2956 2250 2762 2517 
Q 2569 2784 2203 2784 
z
M 2203 3584 
Q 3106 3584 3614 3096 
Q 4122 2609 4122 1747 
Q 4122 884 3614 396 
Q 3106 -91 2203 -91 
Q 1297 -91 786 396 
Q 275 884 275 1747 
Q 275 2609 786 3096 
Q 1297 3584 2203 3584 
z
" transform="scale(0.015625)"/>
      <path id="DejaVuSans-Bold-63" d="M 3366 3391 
L 3366 2478 
Q 3138 2634 2908 2709 
Q 2678 2784 2431 2784 
Q 1963 2784 1702 2511 
Q 1441 2238 1441 1747 
Q 1441 1256 1702 982 
Q 1963 709 2431 709 
Q 2694 709 2930 787 
Q 3166 866 3366 1019 
L 3366 103 
Q 3103 6 2833 -42 
Q 2563 -91 2291 -91 
Q 1344 -91 809 395 
Q 275 881 275 1747 
Q 275 2613 809 3098 
Q 1344 3584 2291 3584 
Q 2566 3584 2833 3536 
Q 3100 3488 3366 3391 
z
" transform="scale(0.015625)"/>
      <path id="DejaVuSans-Bold-73" d="M 3272 3391 
L 3272 2541 
Q 2913 2691 2578 2766 
Q 2244 2841 1947 2841 
Q 1628 2841 1473 2761 
Q 1319 2681 1319 2516 
Q 1319 2381 1436 2309 
Q 1553 2238 1856 2203 
L 2053 2175 
Q 2913 2066 3209 1816 
Q 3506 1566 3506 1031 
Q 3506 472 3093 190 
Q 2681 -91 1863 -91 
Q 1516 -91 1145 -36 
Q 775 19 384 128 
L 384 978 
Q 719 816 1070 734 
Q 1422 653 1784 653 
Q 2113 653 2278 743 
Q 2444 834 2444 1013 
Q 2444 1163 2330 1236 
Q 2216 1309 1875 1350 
L 1678 1375 
Q 931 1469 631 1722 
Q 331 1975 331 2491 
Q 331 3047 712 3315 
Q 1094 3584 1881 3584 
Q 2191 3584 2531 3537 
Q 2872 3491 3272 3391 
z
" transform="scale(0.015625)"/>
      <path id="DejaVuSans-Bold-6e" d="M 4056 2131 
L 4056 0 
L 2931 0 
L 2931 347 
L 2931 1631 
Q 2931 2084 2911 2256 
Q 2891 2428 2841 2509 
Q 2775 2619 2662 2680 
Q 2550 2741 2406 2741 
Q 2056 2741 1856 2470 
Q 1656 2200 1656 1722 
L 1656 0 
L 538 0 
L 538 3500 
L 1656 3500 
L 1656 2988 
Q 1909 3294 2193 3439 
Q 2478 3584 2822 3584 
Q 3428 3584 3742 3212 
Q 4056 2841 4056 2131 
z
" transform="scale(0.015625)"/>
     </defs>
     <use xlink:href="#DejaVuSans-Bold-4c"/>
     <use xlink:href="#DejaVuSans-Bold-69" transform="translate(63.720703 0)"/>
     <use xlink:href="#DejaVuSans-Bold-67" transform="translate(97.998047 0)"/>
     <use xlink:href="#DejaVuSans-Bold-68" transform="translate(169.580078 0)"/>
     <use xlink:href="#DejaVuSans-Bold-74" transform="translate(240.771484 0)"/>
     <use xlink:href="#DejaVuSans-Bold-20" transform="translate(288.574219 0)"/>
     <use xlink:href="#DejaVuSans-Bold-70" transform="translate(323.388672 0)"/>
     <use xlink:href="#DejaVuSans-Bold-72" transform="translate(394.970703 0)"/>
     <use xlink:href="#DejaVuSans-Bold-65" transform="translate(444.287109 0)"/>
     <use xlink:href="#DejaVuSans-Bold-70" transform="translate(512.109375 0)"/>
     <use xlink:href="#DejaVuSans-Bold-72" transform="translate(583.691406 0)"/>
     <use xlink:href="#DejaVuSans-Bold-6f" transform="translate(633.007812 0)"/>
     <use xlink:href="#DejaVuSans-Bold-63" transform="translate(701.708984 0)"/>
     <use xlink:href="#DejaVuSans-Bold-65" transform="translate(760.986328 0)"/>
     <use xlink:href="#DejaVuSans-Bold-73" transform="translate(828.808594 0)"/>
     <use xlink:href="#DejaVuSans-Bold-73" transform="translate(888.330078 0)"/>
     <use xlink:href="#DejaVuSans-Bold-69" transform="translate(947.851562 0)"/>
     <use xlink:href="#DejaVuSans-Bold-6e" transform="translate(982.128906 0)"/>
     <use xlink:href="#DejaVuSans-Bold-67" transform="translate(1053.320312 0)"/>
    </g>
   </g>
   <g id="text_4">
    <!-- strip + collapse -->
    <g style="fill: #334155" transform="translate(169.519431 142.486398) scale(0.085 -0.085)">
     <defs>
      <path id="DejaVuSans-70" d="M 1159 525 
L 1159 -1331 
L 581 -1331 
L 581 3500 
L 1159 3500 
L 1159 2969 
Q 1341 3281 1617 3432 
Q 1894 3584 2278 3584 
Q 2916 3584 3314 3078 
Q 3713 2572 3713 1747 
Q 3713 922 3314 415 
Q 2916 -91 2278 -91 
Q 1894 -91 1617 61 
Q 1341 213 1159 525 
z
M 3116 1747 
Q 3116 2381 2855 2742 
Q 2594 3103 2138 3103 
Q 1681 3103 1420 2742 
Q 1159 2381 1159 1747 
Q 1159 1113 1420 752 
Q 1681 391 2138 391 
Q 2594 391 2855 752 
Q 3116 1113 3116 1747 
z
" transform="scale(0.015625)"/>
     </defs>
     <use xlink:href="#DejaVuSans-73"/>
     <use xlink:href="#DejaVuSans-74" transform="translate(52.099609 0)"/>
     <use xlink:href="#DejaVuSans-72" transform="translate(91.308594 0)"/>
     <use xlink:href="#DejaVuSans-69" transform="translate(132.421875 0)"/>
     <use xlink:href="#DejaVuSans-70" transform="translate(160.205078 0)"/>
     <use xlink:href="#DejaVuSans-20" transform="translate(223.681641 0)"/>
     <use xlink:href="#DejaVuSans-2b" transform="translate(255.46875 0)"/>
     <use xlink:href="#DejaVuSans-20" transform="translate(339.257812 0)"/>
     <use xlink:href="#DejaVuSans-63" transform="translate(371.044922 0)"/>
     <use xlink:href="#DejaVuSans-6f" transform="translate(426.025391 0)"/>
     <use xlink:href="#DejaVuSans-6c" transform="translate(487.207031 0)"/>
     <use xlink:href="#DejaVuSans-6c" transform="translate(514.990234 0)"/>
     <use xlink:href="#DejaVuSans-61" transform="translate(542.773438 0)"/>
     <use xlink:href="#DejaVuSans-70" transform="translate(604.052734 0)"/>
     <use xlink:href="#DejaVuSans-73" transform="translate(667.529297 0)"/>
     <use xlink:href="#DejaVuSans-65" transform="translate(719.628906 0)"/>
    </g>
    <!-- spaces only -->
    <g style="fill: #334155" transform="translate(177.695368 152.004539) scale(0.085 -0.085)">
     <defs>
      <path id="DejaVuSans-79" d="M 2059 -325 
Q 1816 -950 1584 -1140 
Q 1353 -1331 966 -1331 
L 506 -1331 
L 506 -850 
L 844 -850 
Q 1081 -850 1212 -737 
Q 1344 -625 1503 -206 
L 1606 56 
L 191 3500 
L 800 3500 
L 1894 763 
L 2988 3500 
L 3597 3500 
L 2059 -325 
z
" transform="scale(0.015625)"/>
     </defs>
     <use xlink:href="#DejaVuSans-73"/>
     <use xlink:href="#DejaVuSans-70" transform="translate(52.099609 0)"/>
     <use xlink:href="#DejaVuSans-61" transform="translate(115.576172 0)"/>
     <use xlink:href="#DejaVuSans-63" transform="translate(176.855469 0)"/>
     <use xlink:href="#DejaVuSans-65" transform="translate(231.835938 0)"/>
     <use xlink:href="#DejaVuSans-73" transform="translate(293.359375 0)"/>
     <use xlink:href="#DejaVuSans-20" transform="translate(345.458984 0)"/>
     <use xlink:href="#DejaVuSans-6f" transform="translate(377.246094 0)"/>
     <use xlink:href="#DejaVuSans-6e" transform="translate(438.427734 0)"/>
     <use xlink:href="#DejaVuSans-6c" transform="translate(501.806641 0)"/>
     <use xlink:href="#DejaVuSans-79" transform="translate(529.589844 0)"/>
    </g>
   </g>
   <g id="text_5">
    <!-- Tokenizer -->
    <g style="fill: #0f172a" transform="translate(296.528259 120.395312) scale(0.11 -0.11)">
     <defs>
      <path id="DejaVuSans-Bold-54" d="M 31 4666 
L 4331 4666 
L 4331 3756 
L 2784 3756 
L 2784 0 
L 1581 0 
L 1581 3756 
L 31 3756 
L 31 4666 
z
" transform="scale(0.015625)"/>
      <path id="DejaVuSans-Bold-6b" d="M 538 4863 
L 1656 4863 
L 1656 2216 
L 2944 3500 
L 4244 3500 
L 2534 1894 
L 4378 0 
L 3022 0 
L 1656 1459 
L 1656 0 
L 538 0 
L 538 4863 
z
" transform="scale(0.015625)"/>
      <path id="DejaVuSans-Bold-7a" d="M 366 3500 
L 3419 3500 
L 3419 2719 
L 1575 800 
L 3419 800 
L 3419 0 
L 288 0 
L 288 781 
L 2131 2700 
L 366 2700 
L 366 3500 
z
" transform="scale(0.015625)"/>
     </defs>
     <use xlink:href="#DejaVuSans-Bold-54"/>
     <use xlink:href="#DejaVuSans-Bold-6f" transform="translate(54.962891 0)"/>
     <use xlink:href="#DejaVuSans-Bold-6b" transform="translate(123.664062 0)"/>
     <use xlink:href="#DejaVuSans-Bold-65" transform="translate(187.542969 0)"/>
     <use xlink:href="#DejaVuSans-Bold-6e" transform="translate(255.365234 0)"/>
     <use xlink:href="#DejaVuSans-Bold-69" transform="translate(326.556641 0)"/>
     <use xlink:href="#DejaVuSans-Bold-7a" transform="translate(360.833984 0)"/>
     <use xlink:href="#DejaVuSans-Bold-65" transform="translate(419.037109 0)"/>
     <use xlink:href="#DejaVuSans-Bold-72" transform="translate(486.859375 0)"/>
    </g>
   </g>
   <g id="text_6">
    <!-- Spanish biomedical -->
    <g style="fill: #334155" transform="translate(284.650798 142.486398) scale(0.085 -0.085)">
     <defs>
      <path id="DejaVuSans-53" d="M 3425 4513 
L 3425 3897 
Q 3066 4069 2747 4153 
Q 2428 4238 2131 4238 
Q 1616 4238 1336 4038 
Q 1056 3838 1056 3469 
Q 1056 3159 1242 3001 
Q 1428 2844 1947 2747 
L 2328 2669 
Q 3034 2534 3370 2195 
Q 3706 1856 3706 1288 
Q 3706 609 3251 259 
Q 2797 -91 1919 -91 
Q 1588 -91 1214 -16 
Q 841 59 441 206 
L 441 856 
Q 825 641 1194 531 
Q 1563 422 1919 422 
Q 2459 422 2753 634 
Q 3047 847 3047 1241 
Q 3047 1584 2836 1778 
Q 2625 1972 2144 2069 
L 1759 2144 
Q 1053 2284 737 2584 
Q 422 2884 422 3419 
Q 422 4038 858 4394 
Q 1294 4750 2059 4750 
Q 2388 4750 2728 4690 
Q 3069 4631 3425 4513 
z
" transform="scale(0.015625)"/>
      <path id="DejaVuSans-68" d="M 3513 2113 
L 3513 0 
L 2938 0 
L 2938 2094 
Q 2938 2591 2744 2837 
Q 2550 3084 2163 3084 
Q 1697 3084 1428 2787 
Q 1159 2491 1159 1978 
L 1159 0 
L 581 0 
L 581 4863 
L 1159 4863 
L 1159 2956 
Q 1366 3272 1645 3428 
Q 1925 3584 2291 3584 
Q 2894 3584 3203 3211 
Q 3513 2838 3513 2113 
z
" transform="scale(0.015625)"/>
      <path id="DejaVuSans-62" d="M 3116 1747 
Q 3116 2381 2855 2742 
Q 2594 3103 2138 3103 
Q 1681 3103 1420 2742 
Q 1159 2381 1159 1747 
Q 1159 1113 1420 752 
Q 1681 391 2138 391 
Q 2594 391 2855 752 
Q 3116 1113 3116 1747 
z
M 1159 2969 
Q 1341 3281 1617 3432 
Q 1894 3584 2278 3584 
Q 2916 3584 3314 3078 
Q 3713 2572 3713 1747 
Q 3713 922 3314 415 
Q 2916 -91 2278 -91 
Q 1894 -91 1617 61 
Q 1341 213 1159 525 
L 1159 0 
L 581 0 
L 581 4863 
L 1159 4863 
L 1159 2969 
z
" transform="scale(0.015625)"/>
      <path id="DejaVuSans-6d" d="M 3328 2828 
Q 3544 3216 3844 3400 
Q 4144 3584 4550 3584 
Q 5097 3584 5394 3201 
Q 5691 2819 5691 2113 
L 5691 0 
L 5113 0 
L 5113 2094 
Q 5113 2597 4934 2840 
Q 4756 3084 4391 3084 
Q 3944 3084 3684 2787 
Q 3425 2491 3425 1978 
L 3425 0 
L 2847 0 
L 2847 2094 
Q 2847 2600 2669 2842 
Q 2491 3084 2119 3084 
Q 1678 3084 1418 2786 
Q 1159 2488 1159 1978 
L 1159 0 
L 581 0 
L 581 3500 
L 1159 3500 
L 1159 2956 
Q 1356 3278 1631 3431 
Q 1906 3584 2284 3584 
Q 2666 3584 2933 3390 
Q 3200 3197 3328 2828 
z
" transform="scale(0.015625)"/>
     </defs>
     <use xlink:href="#DejaVuSans-53"/>
     <use xlink:href="#DejaVuSans-70" transform="translate(63.476562 0)"/>
     <use xlink:href="#DejaVuSans-61" transform="translate(126.953125 0)"/>
     <use xlink:href="#DejaVuSans-6e" transform="translate(188.232422 0)"/>
     <use xlink:href="#DejaVuSans-69" transform="translate(251.611328 0)"/>
     <use xlink:href="#DejaVuSans-73" transform="translate(279.394531 0)"/>
     <use xlink:href="#DejaVuSans-68" transform="translate(331.494141 0)"/>
     <use xlink:href="#DejaVuSans-20" transform="translate(394.873047 0)"/>
     <use xlink:href="#DejaVuSans-62" transform="translate(426.660156 0)"/>
     <use xlink:href="#DejaVuSans-69" transform="translate(490.136719 0)"/>
     <use xlink:href="#DejaVuSans-6f" transform="translate(517.919922 0)"/>
     <use xlink:href="#DejaVuSans-6d" transform="translate(579.101562 0)"/>
     <use xlink:href="#DejaVuSans-65" transform="translate(676.513672 0)"/>
     <use xlink:href="#DejaVuSans-64" transform="translate(738.037109 0)"/>
     <use xlink:href="#DejaVuSans-69" transform="translate(801.513672 0)"/>
     <use xlink:href="#DejaVuSans-63" transform="translate(829.296875 0)"/>
     <use xlink:href="#DejaVuSans-61" transform="translate(884.277344 0)"/>
     <use xlink:href="#DejaVuSans-6c" transform="translate(945.556641 0)"/>
    </g>
    <!-- RoBERTa tokenizer -->
    <g style="fill: #334155" transform="translate(286.904626 152.004539) scale(0.085 -0.085)">
     <defs>
      <path id="DejaVuSans-52" d="M 2841 2188 
Q 3044 2119 3236 1894 
Q 3428 1669 3622 1275 
L 4263 0 
L 3584 0 
L 2988 1197 
Q 2756 1666 2539 1819 
Q 2322 1972 1947 1972 
L 1259 1972 
L 1259 0 
L 628 0 
L 628 4666 
L 2053 4666 
Q 2853 4666 3247 4331 
Q 3641 3997 3641 3322 
Q 3641 2881 3436 2590 
Q 3231 2300 2841 2188 
z
M 1259 4147 
L 1259 2491 
L 2053 2491 
Q 2509 2491 2742 2702 
Q 2975 2913 2975 3322 
Q 2975 3731 2742 3939 
Q 2509 4147 2053 4147 
L 1259 4147 
z
" transform="scale(0.015625)"/>
      <path id="DejaVuSans-42" d="M 1259 2228 
L 1259 519 
L 2272 519 
Q 2781 519 3026 730 
Q 3272 941 3272 1375 
Q 3272 1813 3026 2020 
Q 2781 2228 2272 2228 
L 1259 2228 
z
M 1259 4147 
L 1259 2741 
L 2194 2741 
Q 2656 2741 2882 2914 
Q 3109 3088 3109 3444 
Q 3109 3797 2882 3972 
Q 2656 4147 2194 4147 
L 1259 4147 
z
M 628 4666 
L 2241 4666 
Q 2963 4666 3353 4366 
Q 3744 4066 3744 3513 
Q 3744 3084 3544 2831 
Q 3344 2578 2956 2516 
Q 3422 2416 3680 2098 
Q 3938 1781 3938 1306 
Q 3938 681 3513 340 
Q 3088 0 2303 0 
L 628 0 
L 628 4666 
z
" transform="scale(0.015625)"/>
      <path id="DejaVuSans-45" d="M 628 4666 
L 3578 4666 
L 3578 4134 
L 1259 4134 
L 1259 2753 
L 3481 2753 
L 3481 2222 
L 1259 2222 
L 1259 531 
L 3634 531 
L 3634 0 
L 628 0 
L 628 4666 
z
" transform="scale(0.015625)"/>
      <path id="DejaVuSans-54" d="M -19 4666 
L 3928 4666 
L 3928 4134 
L 2272 4134 
L 2272 0 
L 1638 0 
L 1638 4134 
L -19 4134 
L -19 4666 
z
" transform="scale(0.015625)"/>
      <path id="DejaVuSans-6b" d="M 581 4863 
L 1159 4863 
L 1159 1991 
L 2875 3500 
L 3609 3500 
L 1753 1863 
L 3688 0 
L 2938 0 
L 1159 1709 
L 1159 0 
L 581 0 
L 581 4863 
z
" transform="scale(0.015625)"/>
      <path id="DejaVuSans-7a" d="M 353 3500 
L 3084 3500 
L 3084 2975 
L 922 459 
L 3084 459 
L 3084 0 
L 275 0 
L 275 525 
L 2438 3041 
L 353 3041 
L 353 3500 
z
" transform="scale(0.015625)"/>
     </defs>
     <use xlink:href="#DejaVuSans-52"/>
     <use xlink:href="#DejaVuSans-6f" transform="translate(64.982422 0)"/>
     <use xlink:href="#DejaVuSans-42" transform="translate(126.164062 0)"/>
     <use xlink:href="#DejaVuSans-45" transform="translate(194.767578 0)"/>
     <use xlink:href="#DejaVuSans-52" transform="translate(257.951172 0)"/>
     <use xlink:href="#DejaVuSans-54" transform="translate(320.183594 0)"/>
     <use xlink:href="#DejaVuSans-61" transform="translate(364.767578 0)"/>
     <use xlink:href="#DejaVuSans-20" transform="translate(426.046875 0)"/>
     <use xlink:href="#DejaVuSans-74" transform="translate(457.833984 0)"/>
     <use xlink:href="#DejaVuSans-6f" transform="translate(497.042969 0)"/>
     <use xlink:href="#DejaVuSans-6b" transform="translate(558.224609 0)"/>
     <use xlink:href="#DejaVuSans-65" transform="translate(612.509766 0)"/>
     <use xlink:href="#DejaVuSans-6e" transform="translate(674.033203 0)"/>
     <use xlink:href="#DejaVuSans-69" transform="translate(737.412109 0)"/>
     <use xlink:href="#DejaVuSans-7a" transform="translate(765.195312 0)"/>
     <use xlink:href="#DejaVuSans-65" transform="translate(817.685547 0)"/>
     <use xlink:href="#DejaVuSans-72" transform="translate(879.208984 0)"/>
    </g>
   </g>
   <g id="text_7">
    <!-- RoBERTa backbone -->
    <g style="fill: #0f172a" transform="translate(394.293069 120.395312) scale(0.11 -0.11)">
     <defs>
      <path id="DejaVuSans-Bold-52" d="M 2297 2597 
Q 2675 2597 2839 2737 
Q 3003 2878 3003 3200 
Q 3003 3519 2839 3656 
Q 2675 3794 2297 3794 
L 1791 3794 
L 1791 2597 
L 2297 2597 
z
M 1791 1766 
L 1791 0 
L 588 0 
L 588 4666 
L 2425 4666 
Q 3347 4666 3776 4356 
Q 4206 4047 4206 3378 
Q 4206 2916 3982 2619 
Q 3759 2322 3309 2181 
Q 3556 2125 3751 1926 
Q 3947 1728 4147 1325 
L 4800 0 
L 3519 0 
L 2950 1159 
Q 2778 1509 2601 1637 
Q 2425 1766 2131 1766 
L 1791 1766 
z
" transform="scale(0.015625)"/>
      <path id="DejaVuSans-Bold-42" d="M 2456 2859 
Q 2741 2859 2887 2984 
Q 3034 3109 3034 3353 
Q 3034 3594 2887 3720 
Q 2741 3847 2456 3847 
L 1791 3847 
L 1791 2859 
L 2456 2859 
z
M 2497 819 
Q 2859 819 3042 972 
Q 3225 1125 3225 1434 
Q 3225 1738 3044 1889 
Q 2863 2041 2497 2041 
L 1791 2041 
L 1791 819 
L 2497 819 
z
M 3616 2497 
Q 4003 2384 4215 2081 
Q 4428 1778 4428 1338 
Q 4428 663 3972 331 
Q 3516 0 2584 0 
L 588 0 
L 588 4666 
L 2394 4666 
Q 3366 4666 3802 4372 
Q 4238 4078 4238 3431 
Q 4238 3091 4078 2852 
Q 3919 2613 3616 2497 
z
" transform="scale(0.015625)"/>
      <path id="DejaVuSans-Bold-45" d="M 588 4666 
L 3834 4666 
L 3834 3756 
L 1791 3756 
L 1791 2888 
L 3713 2888 
L 3713 1978 
L 1791 1978 
L 1791 909 
L 3903 909 
L 3903 0 
L 588 0 
L 588 4666 
z
" transform="scale(0.015625)"/>
      <path id="DejaVuSans-Bold-62" d="M 2400 722 
Q 2759 722 2948 984 
Q 3138 1247 3138 1747 
Q 3138 2247 2948 2509 
Q 2759 2772 2400 2772 
Q 2041 2772 1848 2508 
Q 1656 2244 1656 1747 
Q 1656 1250 1848 986 
Q 2041 722 2400 722 
z
M 1656 2988 
Q 1888 3294 2169 3439 
Q 2450 3584 2816 3584 
Q 3463 3584 3878 3070 
Q 4294 2556 4294 1747 
Q 4294 938 3878 423 
Q 3463 -91 2816 -91 
Q 2450 -91 2169 54 
Q 1888 200 1656 506 
L 1656 0 
L 538 0 
L 538 4863 
L 1656 4863 
L 1656 2988 
z
" transform="scale(0.015625)"/>
     </defs>
     <use xlink:href="#DejaVuSans-Bold-52"/>
     <use xlink:href="#DejaVuSans-Bold-6f" transform="translate(77.001953 0)"/>
     <use xlink:href="#DejaVuSans-Bold-42" transform="translate(145.703125 0)"/>
     <use xlink:href="#DejaVuSans-Bold-45" transform="translate(221.923828 0)"/>
     <use xlink:href="#DejaVuSans-Bold-52" transform="translate(290.234375 0)"/>
     <use xlink:href="#DejaVuSans-Bold-54" transform="translate(362.736328 0)"/>
     <use xlink:href="#DejaVuSans-Bold-61" transform="translate(418.074219 0)"/>
     <use xlink:href="#DejaVuSans-Bold-20" transform="translate(485.554688 0)"/>
     <use xlink:href="#DejaVuSans-Bold-62" transform="translate(520.369141 0)"/>
     <use xlink:href="#DejaVuSans-Bold-61" transform="translate(591.951172 0)"/>
     <use xlink:href="#DejaVuSans-Bold-63" transform="translate(659.431641 0)"/>
     <use xlink:href="#DejaVuSans-Bold-6b" transform="translate(718.708984 0)"/>
     <use xlink:href="#DejaVuSans-Bold-62" transform="translate(785.212891 0)"/>
     <use xlink:href="#DejaVuSans-Bold-6f" transform="translate(856.794922 0)"/>
     <use xlink:href="#DejaVuSans-Bold-6e" transform="translate(925.496094 0)"/>
     <use xlink:href="#DejaVuSans-Bold-65" transform="translate(996.6875 0)"/>
    </g>
   </g>
   <g id="text_8">
    <!-- PlanTL-GOB-ES -->
    <g style="fill: #334155" transform="translate(420.751936 142.486398) scale(0.085 -0.085)">
     <defs>
      <path id="DejaVuSans-50" d="M 1259 4147 
L 1259 2394 
L 2053 2394 
Q 2494 2394 2734 2622 
Q 2975 2850 2975 3272 
Q 2975 3691 2734 3919 
Q 2494 4147 2053 4147 
L 1259 4147 
z
M 628 4666 
L 2053 4666 
Q 2838 4666 3239 4311 
Q 3641 3956 3641 3272 
Q 3641 2581 3239 2228 
Q 2838 1875 2053 1875 
L 1259 1875 
L 1259 0 
L 628 0 
L 628 4666 
z
" transform="scale(0.015625)"/>
      <path id="DejaVuSans-4c" d="M 628 4666 
L 1259 4666 
L 1259 531 
L 3531 531 
L 3531 0 
L 628 0 
L 628 4666 
z
" transform="scale(0.015625)"/>
      <path id="DejaVuSans-2d" d="M 313 2009 
L 1997 2009 
L 1997 1497 
L 313 1497 
L 313 2009 
z
" transform="scale(0.015625)"/>
      <path id="DejaVuSans-47" d="M 3809 666 
L 3809 1919 
L 2778 1919 
L 2778 2438 
L 4434 2438 
L 4434 434 
Q 4069 175 3628 42 
Q 3188 -91 2688 -91 
Q 1594 -91 976 548 
Q 359 1188 359 2328 
Q 359 3472 976 4111 
Q 1594 4750 2688 4750 
Q 3144 4750 3555 4637 
Q 3966 4525 4313 4306 
L 4313 3634 
Q 3963 3931 3569 4081 
Q 3175 4231 2741 4231 
Q 1884 4231 1454 3753 
Q 1025 3275 1025 2328 
Q 1025 1384 1454 906 
Q 1884 428 2741 428 
Q 3075 428 3337 486 
Q 3600 544 3809 666 
z
" transform="scale(0.015625)"/>
      <path id="DejaVuSans-4f" d="M 2522 4238 
Q 1834 4238 1429 3725 
Q 1025 3213 1025 2328 
Q 1025 1447 1429 934 
Q 1834 422 2522 422 
Q 3209 422 3611 934 
Q 4013 1447 4013 2328 
Q 4013 3213 3611 3725 
Q 3209 4238 2522 4238 
z
M 2522 4750 
Q 3503 4750 4090 4092 
Q 4678 3434 4678 2328 
Q 4678 1225 4090 567 
Q 3503 -91 2522 -91 
Q 1538 -91 948 565 
Q 359 1222 359 2328 
Q 359 3434 948 4092 
Q 1538 4750 2522 4750 
z
" transform="scale(0.015625)"/>
     </defs>
     <use xlink:href="#DejaVuSans-50"/>
     <use xlink:href="#DejaVuSans-6c" transform="translate(60.302734 0)"/>
     <use xlink:href="#DejaVuSans-61" transform="translate(88.085938 0)"/>
     <use xlink:href="#DejaVuSans-6e" transform="translate(149.365234 0)"/>
     <use xlink:href="#DejaVuSans-54" transform="translate(212.744141 0)"/>
     <use xlink:href="#DejaVuSans-4c" transform="translate(273.828125 0)"/>
     <use xlink:href="#DejaVuSans-2d" transform="translate(327.791016 0)"/>
     <use xlink:href="#DejaVuSans-47" transform="translate(367.5 0)"/>
     <use xlink:href="#DejaVuSans-4f" transform="translate(444.990234 0)"/>
     <use xlink:href="#DejaVuSans-42" transform="translate(523.701172 0)"/>
     <use xlink:href="#DejaVuSans-2d" transform="translate(592.304688 0)"/>
     <use xlink:href="#DejaVuSans-45" transform="translate(628.388672 0)"/>
     <use xlink:href="#DejaVuSans-53" transform="translate(691.572266 0)"/>
    </g>
    <!-- clinical-biomedical -->
    <g style="fill: #334155" transform="translate(413.37885 152.004539) scale(0.085 -0.085)">
     <use xlink:href="#DejaVuSans-63"/>
     <use xlink:href="#DejaVuSans-6c" transform="translate(54.980469 0)"/>
     <use xlink:href="#DejaVuSans-69" transform="translate(82.763672 0)"/>
     <use xlink:href="#DejaVuSans-6e" transform="translate(110.546875 0)"/>
     <use xlink:href="#DejaVuSans-69" transform="translate(173.925781 0)"/>
     <use xlink:href="#DejaVuSans-63" transform="translate(201.708984 0)"/>
     <use xlink:href="#DejaVuSans-61" transform="translate(256.689453 0)"/>
     <use xlink:href="#DejaVuSans-6c" transform="translate(317.96875 0)"/>
     <use xlink:href="#DejaVuSans-2d" transform="translate(345.751953 0)"/>
     <use xlink:href="#DejaVuSans-62" transform="translate(381.835938 0)"/>
     <use xlink:href="#DejaVuSans-69" transform="translate(445.3125 0)"/>
     <use xlink:href="#DejaVuSans-6f" transform="translate(473.095703 0)"/>
     <use xlink:href="#DejaVuSans-6d" transform="translate(534.277344 0)"/>
     <use xlink:href="#DejaVuSans-65" transform="translate(631.689453 0)"/>
     <use xlink:href="#DejaVuSans-64" transform="translate(693.212891 0)"/>
     <use xlink:href="#DejaVuSans-69" transform="translate(756.689453 0)"/>
     <use xlink:href="#DejaVuSans-63" transform="translate(784.472656 0)"/>
     <use xlink:href="#DejaVuSans-61" transform="translate(839.453125 0)"/>
     <use xlink:href="#DejaVuSans-6c" transform="translate(900.732422 0)"/>
    </g>
   </g>
   <g id="text_9">
    <!-- Pooling -->
    <g style="fill: #0f172a" transform="translate(556.452567 120.352344) scale(0.11 -0.11)">
     <defs>
      <path id="DejaVuSans-Bold-50" d="M 588 4666 
L 2584 4666 
Q 3475 4666 3951 4270 
Q 4428 3875 4428 3144 
Q 4428 2409 3951 2014 
Q 3475 1619 2584 1619 
L 1791 1619 
L 1791 0 
L 588 0 
L 588 4666 
z
M 1791 3794 
L 1791 2491 
L 2456 2491 
Q 2806 2491 2997 2661 
Q 3188 2831 3188 3144 
Q 3188 3456 2997 3625 
Q 2806 3794 2456 3794 
L 1791 3794 
z
" transform="scale(0.015625)"/>
      <path id="DejaVuSans-Bold-6c" d="M 538 4863 
L 1656 4863 
L 1656 0 
L 538 0 
L 538 4863 
z
" transform="scale(0.015625)"/>
     </defs>
     <use xlink:href="#DejaVuSans-Bold-50"/>
     <use xlink:href="#DejaVuSans-Bold-6f" transform="translate(73.291016 0)"/>
     <use xlink:href="#DejaVuSans-Bold-6f" transform="translate(141.992188 0)"/>
     <use xlink:href="#DejaVuSans-Bold-6c" transform="translate(210.693359 0)"/>
     <use xlink:href="#DejaVuSans-Bold-69" transform="translate(244.970703 0)"/>
     <use xlink:href="#DejaVuSans-Bold-6e" transform="translate(279.248047 0)"/>
     <use xlink:href="#DejaVuSans-Bold-67" transform="translate(350.439453 0)"/>
    </g>
   </g>
   <g id="text_10">
    <!-- CLS / mean -->
    <g style="fill: #334155" transform="translate(555.444598 142.486398) scale(0.085 -0.085)">
     <defs>
      <path id="DejaVuSans-2f" d="M 1625 4666 
L 2156 4666 
L 531 -594 
L 0 -594 
L 1625 4666 
z
" transform="scale(0.015625)"/>
     </defs>
     <use xlink:href="#DejaVuSans-43"/>
     <use xlink:href="#DejaVuSans-4c" transform="translate(69.824219 0)"/>
     <use xlink:href="#DejaVuSans-53" transform="translate(125.537109 0)"/>
     <use xlink:href="#DejaVuSans-20" transform="translate(189.013672 0)"/>
     <use xlink:href="#DejaVuSans-2f" transform="translate(220.800781 0)"/>
     <use xlink:href="#DejaVuSans-20" transform="translate(254.492188 0)"/>
     <use xlink:href="#DejaVuSans-6d" transform="translate(286.279297 0)"/>
     <use xlink:href="#DejaVuSans-65" transform="translate(383.691406 0)"/>
     <use xlink:href="#DejaVuSans-61" transform="translate(445.214844 0)"/>
     <use xlink:href="#DejaVuSans-6e" transform="translate(506.494141 0)"/>
    </g>
    <!-- representations -->
    <g style="fill: #334155" transform="translate(546.285184 152.004539) scale(0.085 -0.085)">
     <use xlink:href="#DejaVuSans-72"/>
     <use xlink:href="#DejaVuSans-65" transform="translate(38.863281 0)"/>
     <use xlink:href="#DejaVuSans-70" transform="translate(100.386719 0)"/>
     <use xlink:href="#DejaVuSans-72" transform="translate(163.863281 0)"/>
     <use xlink:href="#DejaVuSans-65" transform="translate(202.726562 0)"/>
     <use xlink:href="#DejaVuSans-73" transform="translate(264.25 0)"/>
     <use xlink:href="#DejaVuSans-65" transform="translate(316.349609 0)"/>
     <use xlink:href="#DejaVuSans-6e" transform="translate(377.873047 0)"/>
     <use xlink:href="#DejaVuSans-74" transform="translate(441.251953 0)"/>
     <use xlink:href="#DejaVuSans-61" transform="translate(480.460938 0)"/>
     <use xlink:href="#DejaVuSans-74" transform="translate(541.740234 0)"/>
     <use xlink:href="#DejaVuSans-69" transform="translate(580.949219 0)"/>
     <use xlink:href="#DejaVuSans-6f" transform="translate(608.732422 0)"/>
     <use xlink:href="#DejaVuSans-6e" transform="translate(669.914062 0)"/>
     <use xlink:href="#DejaVuSans-73" transform="translate(733.292969 0)"/>
    </g>
   </g>
   <g id="text_11">
    <!-- Classifier -->
    <g style="fill: #0f172a" transform="translate(670.654944 120.395312) scale(0.11 -0.11)">
     <defs>
      <path id="DejaVuSans-Bold-43" d="M 4288 256 
Q 3956 84 3597 -3 
Q 3238 -91 2847 -91 
Q 1681 -91 1000 561 
Q 319 1213 319 2328 
Q 319 3447 1000 4098 
Q 1681 4750 2847 4750 
Q 3238 4750 3597 4662 
Q 3956 4575 4288 4403 
L 4288 3438 
Q 3953 3666 3628 3772 
Q 3303 3878 2944 3878 
Q 2300 3878 1931 3465 
Q 1563 3053 1563 2328 
Q 1563 1606 1931 1193 
Q 2300 781 2944 781 
Q 3303 781 3628 887 
Q 3953 994 4288 1222 
L 4288 256 
z
" transform="scale(0.015625)"/>
      <path id="DejaVuSans-Bold-66" d="M 2841 4863 
L 2841 4128 
L 2222 4128 
Q 1984 4128 1890 4042 
Q 1797 3956 1797 3744 
L 1797 3500 
L 2753 3500 
L 2753 2700 
L 1797 2700 
L 1797 0 
L 678 0 
L 678 2700 
L 122 2700 
L 122 3500 
L 678 3500 
L 678 3744 
Q 678 4316 997 4589 
Q 1316 4863 1984 4863 
L 2841 4863 
z
" transform="scale(0.015625)"/>
     </defs>
     <use xlink:href="#DejaVuSans-Bold-43"/>
     <use xlink:href="#DejaVuSans-Bold-6c" transform="translate(73.388672 0)"/>
     <use xlink:href="#DejaVuSans-Bold-61" transform="translate(107.666016 0)"/>
     <use xlink:href="#DejaVuSans-Bold-73" transform="translate(175.146484 0)"/>
     <use xlink:href="#DejaVuSans-Bold-73" transform="translate(234.667969 0)"/>
     <use xlink:href="#DejaVuSans-Bold-69" transform="translate(294.189453 0)"/>
     <use xlink:href="#DejaVuSans-Bold-66" transform="translate(328.466797 0)"/>
     <use xlink:href="#DejaVuSans-Bold-69" transform="translate(371.972656 0)"/>
     <use xlink:href="#DejaVuSans-Bold-65" transform="translate(406.25 0)"/>
     <use xlink:href="#DejaVuSans-Bold-72" transform="translate(474.072266 0)"/>
    </g>
   </g>
   <g id="text_12">
    <!-- 36-way ICD prefix -->
    <g style="fill: #334155" transform="translate(661.552015 142.486398) scale(0.085 -0.085)">
     <defs>
      <path id="DejaVuSans-33" d="M 2597 2516 
Q 3050 2419 3304 2112 
Q 3559 1806 3559 1356 
Q 3559 666 3084 287 
Q 2609 -91 1734 -91 
Q 1441 -91 1130 -33 
Q 819 25 488 141 
L 488 750 
Q 750 597 1062 519 
Q 1375 441 1716 441 
Q 2309 441 2620 675 
Q 2931 909 2931 1356 
Q 2931 1769 2642 2001 
Q 2353 2234 1838 2234 
L 1294 2234 
L 1294 2753 
L 1863 2753 
Q 2328 2753 2575 2939 
Q 2822 3125 2822 3475 
Q 2822 3834 2567 4026 
Q 2313 4219 1838 4219 
Q 1578 4219 1281 4162 
Q 984 4106 628 3988 
L 628 4550 
Q 988 4650 1302 4700 
Q 1616 4750 1894 4750 
Q 2613 4750 3031 4423 
Q 3450 4097 3450 3541 
Q 3450 3153 3228 2886 
Q 3006 2619 2597 2516 
z
" transform="scale(0.015625)"/>
      <path id="DejaVuSans-36" d="M 2113 2584 
Q 1688 2584 1439 2293 
Q 1191 2003 1191 1497 
Q 1191 994 1439 701 
Q 1688 409 2113 409 
Q 2538 409 2786 701 
Q 3034 994 3034 1497 
Q 3034 2003 2786 2293 
Q 2538 2584 2113 2584 
z
M 3366 4563 
L 3366 3988 
Q 3128 4100 2886 4159 
Q 2644 4219 2406 4219 
Q 1781 4219 1451 3797 
Q 1122 3375 1075 2522 
Q 1259 2794 1537 2939 
Q 1816 3084 2150 3084 
Q 2853 3084 3261 2657 
Q 3669 2231 3669 1497 
Q 3669 778 3244 343 
Q 2819 -91 2113 -91 
Q 1303 -91 875 529 
Q 447 1150 447 2328 
Q 447 3434 972 4092 
Q 1497 4750 2381 4750 
Q 2619 4750 2861 4703 
Q 3103 4656 3366 4563 
z
" transform="scale(0.015625)"/>
      <path id="DejaVuSans-77" d="M 269 3500 
L 844 3500 
L 1563 769 
L 2278 3500 
L 2956 3500 
L 3675 769 
L 4391 3500 
L 4966 3500 
L 4050 0 
L 3372 0 
L 2619 2869 
L 1863 0 
L 1184 0 
L 269 3500 
z
" transform="scale(0.015625)"/>
      <path id="DejaVuSans-66" d="M 2375 4863 
L 2375 4384 
L 1825 4384 
Q 1516 4384 1395 4259 
Q 1275 4134 1275 3809 
L 1275 3500 
L 2222 3500 
L 2222 3053 
L 1275 3053 
L 1275 0 
L 697 0 
L 697 3053 
L 147 3053 
L 147 3500 
L 697 3500 
L 697 3744 
Q 697 4328 969 4595 
Q 1241 4863 1831 4863 
L 2375 4863 
z
" transform="scale(0.015625)"/>
      <path id="DejaVuSans-78" d="M 3513 3500 
L 2247 1797 
L 3578 0 
L 2900 0 
L 1881 1375 
L 863 0 
L 184 0 
L 1544 1831 
L 300 3500 
L 978 3500 
L 1906 2253 
L 2834 3500 
L 3513 3500 
z
" transform="scale(0.015625)"/>
     </defs>
     <use xlink:href="#DejaVuSans-33"/>
     <use xlink:href="#DejaVuSans-36" transform="translate(63.623047 0)"/>
     <use xlink:href="#DejaVuSans-2d" transform="translate(127.246094 0)"/>
     <use xlink:href="#DejaVuSans-77" transform="translate(163.330078 0)"/>
     <use xlink:href="#DejaVuSans-61" transform="translate(245.117188 0)"/>
     <use xlink:href="#DejaVuSans-79" transform="translate(306.396484 0)"/>
     <use xlink:href="#DejaVuSans-20" transform="translate(365.576172 0)"/>
     <use xlink:href="#DejaVuSans-49" transform="translate(397.363281 0)"/>
     <use xlink:href="#DejaVuSans-43" transform="translate(426.855469 0)"/>
     <use xlink:href="#DejaVuSans-44" transform="translate(496.679688 0)"/>
     <use xlink:href="#DejaVuSans-20" transform="translate(573.681641 0)"/>
     <use xlink:href="#DejaVuSans-70" transform="translate(605.46875 0)"/>
     <use xlink:href="#DejaVuSans-72" transform="translate(668.945312 0)"/>
     <use xlink:href="#DejaVuSans-65" transform="translate(707.808594 0)"/>
     <use xlink:href="#DejaVuSans-66" transform="translate(769.332031 0)"/>
     <use xlink:href="#DejaVuSans-69" transform="translate(804.537109 0)"/>
     <use xlink:href="#DejaVuSans-78" transform="translate(832.320312 0)"/>
    </g>
    <!-- multiclass head -->
    <g style="fill: #334155" transform="translate(666.068968 152.004539) scale(0.085 -0.085)">
     <defs>
      <path id="DejaVuSans-75" d="M 544 1381 
L 544 3500 
L 1119 3500 
L 1119 1403 
Q 1119 906 1312 657 
Q 1506 409 1894 409 
Q 2359 409 2629 706 
Q 2900 1003 2900 1516 
L 2900 3500 
L 3475 3500 
L 3475 0 
L 2900 0 
L 2900 538 
Q 2691 219 2414 64 
Q 2138 -91 1772 -91 
Q 1169 -91 856 284 
Q 544 659 544 1381 
z
M 1991 3584 
L 1991 3584 
z
" transform="scale(0.015625)"/>
     </defs>
     <use xlink:href="#DejaVuSans-6d"/>
     <use xlink:href="#DejaVuSans-75" transform="translate(97.412109 0)"/>
     <use xlink:href="#DejaVuSans-6c" transform="translate(160.791016 0)"/>
     <use xlink:href="#DejaVuSans-74" transform="translate(188.574219 0)"/>
     <use xlink:href="#DejaVuSans-69" transform="translate(227.783203 0)"/>
     <use xlink:href="#DejaVuSans-63" transform="translate(255.566406 0)"/>
     <use xlink:href="#DejaVuSans-6c" transform="translate(310.546875 0)"/>
     <use xlink:href="#DejaVuSans-61" transform="translate(338.330078 0)"/>
     <use xlink:href="#DejaVuSans-73" transform="translate(399.609375 0)"/>
     <use xlink:href="#DejaVuSans-73" transform="translate(451.708984 0)"/>
     <use xlink:href="#DejaVuSans-20" transform="translate(503.808594 0)"/>
     <use xlink:href="#DejaVuSans-68" transform="translate(535.595703 0)"/>
     <use xlink:href="#DejaVuSans-65" transform="translate(598.974609 0)"/>
     <use xlink:href="#DejaVuSans-61" transform="translate(660.498047 0)"/>
     <use xlink:href="#DejaVuSans-64" transform="translate(721.777344 0)"/>
    </g>
   </g>
   <g id="text_13">
    <!-- Prediction -->
    <g style="fill: #0f172a" transform="translate(790.97635 120.395312) scale(0.11 -0.11)">
     <defs>
      <path id="DejaVuSans-Bold-64" d="M 2919 2988 
L 2919 4863 
L 4044 4863 
L 4044 0 
L 2919 0 
L 2919 506 
Q 2688 197 2409 53 
Q 2131 -91 1766 -91 
Q 1119 -91 703 423 
Q 288 938 288 1747 
Q 288 2556 703 3070 
Q 1119 3584 1766 3584 
Q 2128 3584 2408 3439 
Q 2688 3294 2919 2988 
z
M 2181 722 
Q 2541 722 2730 984 
Q 2919 1247 2919 1747 
Q 2919 2247 2730 2509 
Q 2541 2772 2181 2772 
Q 1825 2772 1636 2509 
Q 1447 2247 1447 1747 
Q 1447 1247 1636 984 
Q 1825 722 2181 722 
z
" transform="scale(0.015625)"/>
     </defs>
     <use xlink:href="#DejaVuSans-Bold-50"/>
     <use xlink:href="#DejaVuSans-Bold-72" transform="translate(73.291016 0)"/>
     <use xlink:href="#DejaVuSans-Bold-65" transform="translate(122.607422 0)"/>
     <use xlink:href="#DejaVuSans-Bold-64" transform="translate(190.429688 0)"/>
     <use xlink:href="#DejaVuSans-Bold-69" transform="translate(262.011719 0)"/>
     <use xlink:href="#DejaVuSans-Bold-63" transform="translate(296.289062 0)"/>
     <use xlink:href="#DejaVuSans-Bold-74" transform="translate(355.566406 0)"/>
     <use xlink:href="#DejaVuSans-Bold-69" transform="translate(403.369141 0)"/>
     <use xlink:href="#DejaVuSans-Bold-6f" transform="translate(437.646484 0)"/>
     <use xlink:href="#DejaVuSans-Bold-6e" transform="translate(506.347656 0)"/>
    </g>
   </g>
   <g id="text_14">
    <!-- one y_category -->
    <g style="fill: #334155" transform="translate(790.0576 142.249992) scale(0.085 -0.085)">
     <defs>
      <path id="DejaVuSans-5f" d="M 3263 -1063 
L 3263 -1509 
L -63 -1509 
L -63 -1063 
L 3263 -1063 
z
" transform="scale(0.015625)"/>
      <path id="DejaVuSans-67" d="M 2906 1791 
Q 2906 2416 2648 2759 
Q 2391 3103 1925 3103 
Q 1463 3103 1205 2759 
Q 947 2416 947 1791 
Q 947 1169 1205 825 
Q 1463 481 1925 481 
Q 2391 481 2648 825 
Q 2906 1169 2906 1791 
z
M 3481 434 
Q 3481 -459 3084 -895 
Q 2688 -1331 1869 -1331 
Q 1566 -1331 1297 -1286 
Q 1028 -1241 775 -1147 
L 775 -588 
Q 1028 -725 1275 -790 
Q 1522 -856 1778 -856 
Q 2344 -856 2625 -561 
Q 2906 -266 2906 331 
L 2906 616 
Q 2728 306 2450 153 
Q 2172 0 1784 0 
Q 1141 0 747 490 
Q 353 981 353 1791 
Q 353 2603 747 3093 
Q 1141 3584 1784 3584 
Q 2172 3584 2450 3431 
Q 2728 3278 2906 2969 
L 2906 3500 
L 3481 3500 
L 3481 434 
z
" transform="scale(0.015625)"/>
     </defs>
     <use xlink:href="#DejaVuSans-6f"/>
     <use xlink:href="#DejaVuSans-6e" transform="translate(61.181641 0)"/>
     <use xlink:href="#DejaVuSans-65" transform="translate(124.560547 0)"/>
     <use xlink:href="#DejaVuSans-20" transform="translate(186.083984 0)"/>
     <use xlink:href="#DejaVuSans-79" transform="translate(217.871094 0)"/>
     <use xlink:href="#DejaVuSans-5f" transform="translate(277.050781 0)"/>
     <use xlink:href="#DejaVuSans-63" transform="translate(327.050781 0)"/>
     <use xlink:href="#DejaVuSans-61" transform="translate(382.03125 0)"/>
     <use xlink:href="#DejaVuSans-74" transform="translate(443.310547 0)"/>
     <use xlink:href="#DejaVuSans-65" transform="translate(482.519531 0)"/>
     <use xlink:href="#DejaVuSans-67" transform="translate(544.042969 0)"/>
     <use xlink:href="#DejaVuSans-6f" transform="translate(607.519531 0)"/>
     <use xlink:href="#DejaVuSans-72" transform="translate(668.701172 0)"/>
     <use xlink:href="#DejaVuSans-79" transform="translate(709.814453 0)"/>
    </g>
    <!-- per literal -->
    <g style="fill: #334155" transform="translate(802.155491 152.004539) scale(0.085 -0.085)">
     <use xlink:href="#DejaVuSans-70"/>
     <use xlink:href="#DejaVuSans-65" transform="translate(63.476562 0)"/>
     <use xlink:href="#DejaVuSans-72" transform="translate(125 0)"/>
     <use xlink:href="#DejaVuSans-20" transform="translate(166.113281 0)"/>
     <use xlink:href="#DejaVuSans-6c" transform="translate(197.900391 0)"/>
     <use xlink:href="#DejaVuSans-69" transform="translate(225.683594 0)"/>
     <use xlink:href="#DejaVuSans-74" transform="translate(253.466797 0)"/>
     <use xlink:href="#DejaVuSans-65" transform="translate(292.675781 0)"/>
     <use xlink:href="#DejaVuSans-72" transform="translate(354.199219 0)"/>
     <use xlink:href="#DejaVuSans-61" transform="translate(395.3125 0)"/>
     <use xlink:href="#DejaVuSans-6c" transform="translate(456.591797 0)"/>
    </g>
   </g>
   <g id="text_15">
    <!-- Submission -->
    <g style="fill: #0f172a" transform="translate(889.348504 120.395312) scale(0.11 -0.11)">
     <defs>
      <path id="DejaVuSans-Bold-53" d="M 3834 4519 
L 3834 3531 
Q 3450 3703 3084 3790 
Q 2719 3878 2394 3878 
Q 1963 3878 1756 3759 
Q 1550 3641 1550 3391 
Q 1550 3203 1689 3098 
Q 1828 2994 2194 2919 
L 2706 2816 
Q 3484 2659 3812 2340 
Q 4141 2022 4141 1434 
Q 4141 663 3683 286 
Q 3225 -91 2284 -91 
Q 1841 -91 1394 -6 
Q 947 78 500 244 
L 500 1259 
Q 947 1022 1364 901 
Q 1781 781 2169 781 
Q 2563 781 2772 912 
Q 2981 1044 2981 1288 
Q 2981 1506 2839 1625 
Q 2697 1744 2272 1838 
L 1806 1941 
Q 1106 2091 782 2419 
Q 459 2747 459 3303 
Q 459 4000 909 4375 
Q 1359 4750 2203 4750 
Q 2588 4750 2994 4692 
Q 3400 4634 3834 4519 
z
" transform="scale(0.015625)"/>
      <path id="DejaVuSans-Bold-75" d="M 500 1363 
L 500 3500 
L 1625 3500 
L 1625 3150 
Q 1625 2866 1622 2436 
Q 1619 2006 1619 1863 
Q 1619 1441 1641 1255 
Q 1663 1069 1716 984 
Q 1784 875 1895 815 
Q 2006 756 2150 756 
Q 2500 756 2700 1025 
Q 2900 1294 2900 1772 
L 2900 3500 
L 4019 3500 
L 4019 0 
L 2900 0 
L 2900 506 
Q 2647 200 2364 54 
Q 2081 -91 1741 -91 
Q 1134 -91 817 281 
Q 500 653 500 1363 
z
" transform="scale(0.015625)"/>
      <path id="DejaVuSans-Bold-6d" d="M 3781 2919 
Q 3994 3244 4286 3414 
Q 4578 3584 4928 3584 
Q 5531 3584 5847 3212 
Q 6163 2841 6163 2131 
L 6163 0 
L 5038 0 
L 5038 1825 
Q 5041 1866 5042 1909 
Q 5044 1953 5044 2034 
Q 5044 2406 4934 2573 
Q 4825 2741 4581 2741 
Q 4263 2741 4089 2478 
Q 3916 2216 3909 1719 
L 3909 0 
L 2784 0 
L 2784 1825 
Q 2784 2406 2684 2573 
Q 2584 2741 2328 2741 
Q 2006 2741 1831 2477 
Q 1656 2213 1656 1722 
L 1656 0 
L 531 0 
L 531 3500 
L 1656 3500 
L 1656 2988 
Q 1863 3284 2130 3434 
Q 2397 3584 2719 3584 
Q 3081 3584 3359 3409 
Q 3638 3234 3781 2919 
z
" transform="scale(0.015625)"/>
     </defs>
     <use xlink:href="#DejaVuSans-Bold-53"/>
     <use xlink:href="#DejaVuSans-Bold-75" transform="translate(72.021484 0)"/>
     <use xlink:href="#DejaVuSans-Bold-62" transform="translate(143.212891 0)"/>
     <use xlink:href="#DejaVuSans-Bold-6d" transform="translate(214.794922 0)"/>
     <use xlink:href="#DejaVuSans-Bold-69" transform="translate(318.994141 0)"/>
     <use xlink:href="#DejaVuSans-Bold-73" transform="translate(353.271484 0)"/>
     <use xlink:href="#DejaVuSans-Bold-73" transform="translate(412.792969 0)"/>
     <use xlink:href="#DejaVuSans-Bold-69" transform="translate(472.314453 0)"/>
     <use xlink:href="#DejaVuSans-Bold-6f" transform="translate(506.591797 0)"/>
     <use xlink:href="#DejaVuSans-Bold-6e" transform="translate(575.292969 0)"/>
    </g>
   </g>
   <g id="text_16">
    <!-- id,y_category -->
    <g style="fill: #334155" transform="translate(896.250653 142.368195) scale(0.085 -0.085)">
     <defs>
      <path id="DejaVuSans-2c" d="M 750 794 
L 1409 794 
L 1409 256 
L 897 -744 
L 494 -744 
L 750 256 
L 750 794 
z
" transform="scale(0.015625)"/>
     </defs>
     <use xlink:href="#DejaVuSans-69"/>
     <use xlink:href="#DejaVuSans-64" transform="translate(27.783203 0)"/>
     <use xlink:href="#DejaVuSans-2c" transform="translate(91.259766 0)"/>
     <use xlink:href="#DejaVuSans-79" transform="translate(123.046875 0)"/>
     <use xlink:href="#DejaVuSans-5f" transform="translate(182.226562 0)"/>
     <use xlink:href="#DejaVuSans-63" transform="translate(232.226562 0)"/>
     <use xlink:href="#DejaVuSans-61" transform="translate(287.207031 0)"/>
     <use xlink:href="#DejaVuSans-74" transform="translate(348.486328 0)"/>
     <use xlink:href="#DejaVuSans-65" transform="translate(387.695312 0)"/>
     <use xlink:href="#DejaVuSans-67" transform="translate(449.21875 0)"/>
     <use xlink:href="#DejaVuSans-6f" transform="translate(512.695312 0)"/>
     <use xlink:href="#DejaVuSans-72" transform="translate(573.876953 0)"/>
     <use xlink:href="#DejaVuSans-79" transform="translate(614.990234 0)"/>
    </g>
    <!-- CSV for Kaggle -->
    <g style="fill: #334155" transform="translate(893.276981 152.122742) scale(0.085 -0.085)">
     <defs>
      <path id="DejaVuSans-56" d="M 1831 0 
L 50 4666 
L 709 4666 
L 2188 738 
L 3669 4666 
L 4325 4666 
L 2547 0 
L 1831 0 
z
" transform="scale(0.015625)"/>
      <path id="DejaVuSans-4b" d="M 628 4666 
L 1259 4666 
L 1259 2694 
L 3353 4666 
L 4166 4666 
L 1850 2491 
L 4331 0 
L 3500 0 
L 1259 2247 
L 1259 0 
L 628 0 
L 628 4666 
z
" transform="scale(0.015625)"/>
     </defs>
     <use xlink:href="#DejaVuSans-43"/>
     <use xlink:href="#DejaVuSans-53" transform="translate(69.824219 0)"/>
     <use xlink:href="#DejaVuSans-56" transform="translate(133.300781 0)"/>
     <use xlink:href="#DejaVuSans-20" transform="translate(201.708984 0)"/>
     <use xlink:href="#DejaVuSans-66" transform="translate(233.496094 0)"/>
     <use xlink:href="#DejaVuSans-6f" transform="translate(268.701172 0)"/>
     <use xlink:href="#DejaVuSans-72" transform="translate(329.882812 0)"/>
     <use xlink:href="#DejaVuSans-20" transform="translate(370.996094 0)"/>
     <use xlink:href="#DejaVuSans-4b" transform="translate(402.783203 0)"/>
     <use xlink:href="#DejaVuSans-61" transform="translate(466.609375 0)"/>
     <use xlink:href="#DejaVuSans-67" transform="translate(527.888672 0)"/>
     <use xlink:href="#DejaVuSans-67" transform="translate(591.365234 0)"/>
     <use xlink:href="#DejaVuSans-6c" transform="translate(654.841797 0)"/>
     <use xlink:href="#DejaVuSans-65" transform="translate(682.625 0)"/>
    </g>
   </g>
   <g id="text_17">
    <!-- Final v09 ensemble -->
    <g style="fill: #4c1d95" transform="translate(501.892891 264.251312) scale(0.11 -0.11)">
     <defs>
      <path id="DejaVuSans-Bold-46" d="M 588 4666 
L 3834 4666 
L 3834 3756 
L 1791 3756 
L 1791 2888 
L 3713 2888 
L 3713 1978 
L 1791 1978 
L 1791 0 
L 588 0 
L 588 4666 
z
" transform="scale(0.015625)"/>
      <path id="DejaVuSans-Bold-76" d="M 97 3500 
L 1216 3500 
L 2088 1081 
L 2956 3500 
L 4078 3500 
L 2700 0 
L 1472 0 
L 97 3500 
z
" transform="scale(0.015625)"/>
      <path id="DejaVuSans-Bold-30" d="M 2944 2338 
Q 2944 3213 2780 3570 
Q 2616 3928 2228 3928 
Q 1841 3928 1675 3570 
Q 1509 3213 1509 2338 
Q 1509 1453 1675 1090 
Q 1841 728 2228 728 
Q 2613 728 2778 1090 
Q 2944 1453 2944 2338 
z
M 4147 2328 
Q 4147 1169 3647 539 
Q 3147 -91 2228 -91 
Q 1306 -91 806 539 
Q 306 1169 306 2328 
Q 306 3491 806 4120 
Q 1306 4750 2228 4750 
Q 3147 4750 3647 4120 
Q 4147 3491 4147 2328 
z
" transform="scale(0.015625)"/>
      <path id="DejaVuSans-Bold-39" d="M 641 103 
L 641 966 
Q 928 831 1190 764 
Q 1453 697 1709 697 
Q 2247 697 2547 995 
Q 2847 1294 2900 1881 
Q 2688 1725 2447 1647 
Q 2206 1569 1925 1569 
Q 1209 1569 770 1986 
Q 331 2403 331 3084 
Q 331 3838 820 4291 
Q 1309 4744 2131 4744 
Q 3044 4744 3544 4128 
Q 4044 3513 4044 2388 
Q 4044 1231 3459 570 
Q 2875 -91 1856 -91 
Q 1528 -91 1228 -42 
Q 928 6 641 103 
z
M 2125 2350 
Q 2441 2350 2600 2554 
Q 2759 2759 2759 3169 
Q 2759 3575 2600 3781 
Q 2441 3988 2125 3988 
Q 1809 3988 1650 3781 
Q 1491 3575 1491 3169 
Q 1491 2759 1650 2554 
Q 1809 2350 2125 2350 
z
" transform="scale(0.015625)"/>
     </defs>
     <use xlink:href="#DejaVuSans-Bold-46"/>
     <use xlink:href="#DejaVuSans-Bold-69" transform="translate(68.310547 0)"/>
     <use xlink:href="#DejaVuSans-Bold-6e" transform="translate(102.587891 0)"/>
     <use xlink:href="#DejaVuSans-Bold-61" transform="translate(173.779297 0)"/>
     <use xlink:href="#DejaVuSans-Bold-6c" transform="translate(241.259766 0)"/>
     <use xlink:href="#DejaVuSans-Bold-20" transform="translate(275.537109 0)"/>
     <use xlink:href="#DejaVuSans-Bold-76" transform="translate(310.351562 0)"/>
     <use xlink:href="#DejaVuSans-Bold-30" transform="translate(375.537109 0)"/>
     <use xlink:href="#DejaVuSans-Bold-39" transform="translate(445.117188 0)"/>
     <use xlink:href="#DejaVuSans-Bold-20" transform="translate(514.697266 0)"/>
     <use xlink:href="#DejaVuSans-Bold-65" transform="translate(549.511719 0)"/>
     <use xlink:href="#DejaVuSans-Bold-6e" transform="translate(617.333984 0)"/>
     <use xlink:href="#DejaVuSans-Bold-73" transform="translate(688.525391 0)"/>
     <use xlink:href="#DejaVuSans-Bold-65" transform="translate(748.046875 0)"/>
     <use xlink:href="#DejaVuSans-Bold-6d" transform="translate(815.869141 0)"/>
     <use xlink:href="#DejaVuSans-Bold-62" transform="translate(920.068359 0)"/>
     <use xlink:href="#DejaVuSans-Bold-6c" transform="translate(991.650391 0)"/>
     <use xlink:href="#DejaVuSans-Bold-65" transform="translate(1025.927734 0)"/>
    </g>
   </g>
   <g id="text_18">
    <!-- majority vote over RoBERTa variants + TF-IDF char baseline -->
    <g style="fill: #5b21b6" transform="translate(432.125016 283.056656) scale(0.087 -0.087)">
     <defs>
      <path id="DejaVuSans-6a" d="M 603 3500 
L 1178 3500 
L 1178 -63 
Q 1178 -731 923 -1031 
Q 669 -1331 103 -1331 
L -116 -1331 
L -116 -844 
L 38 -844 
Q 366 -844 484 -692 
Q 603 -541 603 -63 
L 603 3500 
z
M 603 4863 
L 1178 4863 
L 1178 4134 
L 603 4134 
L 603 4863 
z
" transform="scale(0.015625)"/>
      <path id="DejaVuSans-76" d="M 191 3500 
L 800 3500 
L 1894 563 
L 2988 3500 
L 3597 3500 
L 2284 0 
L 1503 0 
L 191 3500 
z
" transform="scale(0.015625)"/>
      <path id="DejaVuSans-46" d="M 628 4666 
L 3309 4666 
L 3309 4134 
L 1259 4134 
L 1259 2759 
L 3109 2759 
L 3109 2228 
L 1259 2228 
L 1259 0 
L 628 0 
L 628 4666 
z
" transform="scale(0.015625)"/>
     </defs>
     <use xlink:href="#DejaVuSans-6d"/>
     <use xlink:href="#DejaVuSans-61" transform="translate(97.412109 0)"/>
     <use xlink:href="#DejaVuSans-6a" transform="translate(158.691406 0)"/>
     <use xlink:href="#DejaVuSans-6f" transform="translate(186.474609 0)"/>
     <use xlink:href="#DejaVuSans-72" transform="translate(247.65625 0)"/>
     <use xlink:href="#DejaVuSans-69" transform="translate(288.769531 0)"/>
     <use xlink:href="#DejaVuSans-74" transform="translate(316.552734 0)"/>
     <use xlink:href="#DejaVuSans-79" transform="translate(355.761719 0)"/>
     <use xlink:href="#DejaVuSans-20" transform="translate(414.941406 0)"/>
     <use xlink:href="#DejaVuSans-76" transform="translate(446.728516 0)"/>
     <use xlink:href="#DejaVuSans-6f" transform="translate(505.908203 0)"/>
     <use xlink:href="#DejaVuSans-74" transform="translate(567.089844 0)"/>
     <use xlink:href="#DejaVuSans-65" transform="translate(606.298828 0)"/>
     <use xlink:href="#DejaVuSans-20" transform="translate(667.822266 0)"/>
     <use xlink:href="#DejaVuSans-6f" transform="translate(699.609375 0)"/>
     <use xlink:href="#DejaVuSans-76" transform="translate(760.791016 0)"/>
     <use xlink:href="#DejaVuSans-65" transform="translate(819.970703 0)"/>
     <use xlink:href="#DejaVuSans-72" transform="translate(881.494141 0)"/>
     <use xlink:href="#DejaVuSans-20" transform="translate(922.607422 0)"/>
     <use xlink:href="#DejaVuSans-52" transform="translate(954.394531 0)"/>
     <use xlink:href="#DejaVuSans-6f" transform="translate(1019.376953 0)"/>
     <use xlink:href="#DejaVuSans-42" transform="translate(1080.558594 0)"/>
     <use xlink:href="#DejaVuSans-45" transform="translate(1149.162109 0)"/>
     <use xlink:href="#DejaVuSans-52" transform="translate(1212.345703 0)"/>
     <use xlink:href="#DejaVuSans-54" transform="translate(1274.578125 0)"/>
     <use xlink:href="#DejaVuSans-61" transform="translate(1319.162109 0)"/>
     <use xlink:href="#DejaVuSans-20" transform="translate(1380.441406 0)"/>
     <use xlink:href="#DejaVuSans-76" transform="translate(1412.228516 0)"/>
     <use xlink:href="#DejaVuSans-61" transform="translate(1471.408203 0)"/>
     <use xlink:href="#DejaVuSans-72" transform="translate(1532.6875 0)"/>
     <use xlink:href="#DejaVuSans-69" transform="translate(1573.800781 0)"/>
     <use xlink:href="#DejaVuSans-61" transform="translate(1601.583984 0)"/>
     <use xlink:href="#DejaVuSans-6e" transform="translate(1662.863281 0)"/>
     <use xlink:href="#DejaVuSans-74" transform="translate(1726.242188 0)"/>
     <use xlink:href="#DejaVuSans-73" transform="translate(1765.451172 0)"/>
     <use xlink:href="#DejaVuSans-20" transform="translate(1817.550781 0)"/>
     <use xlink:href="#DejaVuSans-2b" transform="translate(1849.337891 0)"/>
     <use xlink:href="#DejaVuSans-20" transform="translate(1933.126953 0)"/>
     <use xlink:href="#DejaVuSans-54" transform="translate(1964.914062 0)"/>
     <use xlink:href="#DejaVuSans-46" transform="translate(2025.998047 0)"/>
     <use xlink:href="#DejaVuSans-2d" transform="translate(2083.517578 0)"/>
     <use xlink:href="#DejaVuSans-49" transform="translate(2119.601562 0)"/>
     <use xlink:href="#DejaVuSans-44" transform="translate(2149.09375 0)"/>
     <use xlink:href="#DejaVuSans-46" transform="translate(2226.095703 0)"/>
     <use xlink:href="#DejaVuSans-20" transform="translate(2283.615234 0)"/>
     <use xlink:href="#DejaVuSans-63" transform="translate(2315.402344 0)"/>
     <use xlink:href="#DejaVuSans-68" transform="translate(2370.382812 0)"/>
     <use xlink:href="#DejaVuSans-61" transform="translate(2433.761719 0)"/>
     <use xlink:href="#DejaVuSans-72" transform="translate(2495.041016 0)"/>
     <use xlink:href="#DejaVuSans-20" transform="translate(2536.154297 0)"/>
     <use xlink:href="#DejaVuSans-62" transform="translate(2567.941406 0)"/>
     <use xlink:href="#DejaVuSans-61" transform="translate(2631.417969 0)"/>
     <use xlink:href="#DejaVuSans-73" transform="translate(2692.697266 0)"/>
     <use xlink:href="#DejaVuSans-65" transform="translate(2744.796875 0)"/>
     <use xlink:href="#DejaVuSans-6c" transform="translate(2806.320312 0)"/>
     <use xlink:href="#DejaVuSans-69" transform="translate(2834.103516 0)"/>
     <use xlink:href="#DejaVuSans-6e" transform="translate(2861.886719 0)"/>
     <use xlink:href="#DejaVuSans-65" transform="translate(2925.265625 0)"/>
    </g>
   </g>
   <g id="text_19">
    <!-- UAB-ASHO AI Codification Pipeline -->
    <g style="fill: #0f172a" transform="translate(38.905714 36.36) scale(0.18 -0.18)">
     <defs>
      <path id="DejaVuSans-Bold-55" d="M 588 4666 
L 1791 4666 
L 1791 1869 
Q 1791 1291 1980 1042 
Q 2169 794 2597 794 
Q 3028 794 3217 1042 
Q 3406 1291 3406 1869 
L 3406 4666 
L 4609 4666 
L 4609 1869 
Q 4609 878 4112 393 
Q 3616 -91 2597 -91 
Q 1581 -91 1084 393 
Q 588 878 588 1869 
L 588 4666 
z
" transform="scale(0.015625)"/>
      <path id="DejaVuSans-Bold-41" d="M 3419 850 
L 1538 850 
L 1241 0 
L 31 0 
L 1759 4666 
L 3194 4666 
L 4922 0 
L 3713 0 
L 3419 850 
z
M 1838 1716 
L 3116 1716 
L 2478 3572 
L 1838 1716 
z
" transform="scale(0.015625)"/>
      <path id="DejaVuSans-Bold-2d" d="M 347 2297 
L 2309 2297 
L 2309 1388 
L 347 1388 
L 347 2297 
z
" transform="scale(0.015625)"/>
      <path id="DejaVuSans-Bold-48" d="M 588 4666 
L 1791 4666 
L 1791 2888 
L 3566 2888 
L 3566 4666 
L 4769 4666 
L 4769 0 
L 3566 0 
L 3566 1978 
L 1791 1978 
L 1791 0 
L 588 0 
L 588 4666 
z
" transform="scale(0.015625)"/>
      <path id="DejaVuSans-Bold-4f" d="M 2719 3878 
Q 2169 3878 1866 3472 
Q 1563 3066 1563 2328 
Q 1563 1594 1866 1187 
Q 2169 781 2719 781 
Q 3272 781 3575 1187 
Q 3878 1594 3878 2328 
Q 3878 3066 3575 3472 
Q 3272 3878 2719 3878 
z
M 2719 4750 
Q 3844 4750 4481 4106 
Q 5119 3463 5119 2328 
Q 5119 1197 4481 553 
Q 3844 -91 2719 -91 
Q 1597 -91 958 553 
Q 319 1197 319 2328 
Q 319 3463 958 4106 
Q 1597 4750 2719 4750 
z
" transform="scale(0.015625)"/>
      <path id="DejaVuSans-Bold-49" d="M 588 4666 
L 1791 4666 
L 1791 0 
L 588 0 
L 588 4666 
z
" transform="scale(0.015625)"/>
     </defs>
     <use xlink:href="#DejaVuSans-Bold-55"/>
     <use xlink:href="#DejaVuSans-Bold-41" transform="translate(78.076172 0)"/>
     <use xlink:href="#DejaVuSans-Bold-42" transform="translate(155.46875 0)"/>
     <use xlink:href="#DejaVuSans-Bold-2d" transform="translate(231.689453 0)"/>
     <use xlink:href="#DejaVuSans-Bold-41" transform="translate(273.193359 0)"/>
     <use xlink:href="#DejaVuSans-Bold-53" transform="translate(350.585938 0)"/>
     <use xlink:href="#DejaVuSans-Bold-48" transform="translate(422.607422 0)"/>
     <use xlink:href="#DejaVuSans-Bold-4f" transform="translate(506.298828 0)"/>
     <use xlink:href="#DejaVuSans-Bold-20" transform="translate(591.308594 0)"/>
     <use xlink:href="#DejaVuSans-Bold-41" transform="translate(626.123047 0)"/>
     <use xlink:href="#DejaVuSans-Bold-49" transform="translate(703.515625 0)"/>
     <use xlink:href="#DejaVuSans-Bold-20" transform="translate(740.722656 0)"/>
     <use xlink:href="#DejaVuSans-Bold-43" transform="translate(775.537109 0)"/>
     <use xlink:href="#DejaVuSans-Bold-6f" transform="translate(848.925781 0)"/>
     <use xlink:href="#DejaVuSans-Bold-64" transform="translate(917.626953 0)"/>
     <use xlink:href="#DejaVuSans-Bold-69" transform="translate(989.208984 0)"/>
     <use xlink:href="#DejaVuSans-Bold-66" transform="translate(1023.486328 0)"/>
     <use xlink:href="#DejaVuSans-Bold-69" transform="translate(1066.992188 0)"/>
     <use xlink:href="#DejaVuSans-Bold-63" transform="translate(1101.269531 0)"/>
     <use xlink:href="#DejaVuSans-Bold-61" transform="translate(1160.546875 0)"/>
     <use xlink:href="#DejaVuSans-Bold-74" transform="translate(1228.027344 0)"/>
     <use xlink:href="#DejaVuSans-Bold-69" transform="translate(1275.830078 0)"/>
     <use xlink:href="#DejaVuSans-Bold-6f" transform="translate(1310.107422 0)"/>
     <use xlink:href="#DejaVuSans-Bold-6e" transform="translate(1378.808594 0)"/>
     <use xlink:href="#DejaVuSans-Bold-20" transform="translate(1450 0)"/>
     <use xlink:href="#DejaVuSans-Bold-50" transform="translate(1484.814453 0)"/>
     <use xlink:href="#DejaVuSans-Bold-69" transform="translate(1558.105469 0)"/>
     <use xlink:href="#DejaVuSans-Bold-70" transform="translate(1592.382812 0)"/>
     <use xlink:href="#DejaVuSans-Bold-65" transform="translate(1663.964844 0)"/>
     <use xlink:href="#DejaVuSans-Bold-6c" transform="translate(1731.787109 0)"/>
     <use xlink:href="#DejaVuSans-Bold-69" transform="translate(1766.064453 0)"/>
     <use xlink:href="#DejaVuSans-Bold-6e" transform="translate(1800.341797 0)"/>
     <use xlink:href="#DejaVuSans-Bold-65" transform="translate(1871.533203 0)"/>
    </g>
   </g>
   <g id="text_20">
    <!-- From clinical literal to ICD-10 category-prefix submission -->
    <g style="fill: #475569" transform="translate(38.905714 57.744) scale(0.11 -0.11)">
     <defs>
      <path id="DejaVuSans-31" d="M 794 531 
L 1825 531 
L 1825 4091 
L 703 3866 
L 703 4441 
L 1819 4666 
L 2450 4666 
L 2450 531 
L 3481 531 
L 3481 0 
L 794 0 
L 794 531 
z
" transform="scale(0.015625)"/>
      <path id="DejaVuSans-30" d="M 2034 4250 
Q 1547 4250 1301 3770 
Q 1056 3291 1056 2328 
Q 1056 1369 1301 889 
Q 1547 409 2034 409 
Q 2525 409 2770 889 
Q 3016 1369 3016 2328 
Q 3016 3291 2770 3770 
Q 2525 4250 2034 4250 
z
M 2034 4750 
Q 2819 4750 3233 4129 
Q 3647 3509 3647 2328 
Q 3647 1150 3233 529 
Q 2819 -91 2034 -91 
Q 1250 -91 836 529 
Q 422 1150 422 2328 
Q 422 3509 836 4129 
Q 1250 4750 2034 4750 
z
" transform="scale(0.015625)"/>
     </defs>
     <use xlink:href="#DejaVuSans-46"/>
     <use xlink:href="#DejaVuSans-72" transform="translate(50.269531 0)"/>
     <use xlink:href="#DejaVuSans-6f" transform="translate(89.132812 0)"/>
     <use xlink:href="#DejaVuSans-6d" transform="translate(150.314453 0)"/>
     <use xlink:href="#DejaVuSans-20" transform="translate(247.726562 0)"/>
     <use xlink:href="#DejaVuSans-63" transform="translate(279.513672 0)"/>
     <use xlink:href="#DejaVuSans-6c" transform="translate(334.494141 0)"/>
     <use xlink:href="#DejaVuSans-69" transform="translate(362.277344 0)"/>
     <use xlink:href="#DejaVuSans-6e" transform="translate(390.060547 0)"/>
     <use xlink:href="#DejaVuSans-69" transform="translate(453.439453 0)"/>
     <use xlink:href="#DejaVuSans-63" transform="translate(481.222656 0)"/>
     <use xlink:href="#DejaVuSans-61" transform="translate(536.203125 0)"/>
     <use xlink:href="#DejaVuSans-6c" transform="translate(597.482422 0)"/>
     <use xlink:href="#DejaVuSans-20" transform="translate(625.265625 0)"/>
     <use xlink:href="#DejaVuSans-6c" transform="translate(657.052734 0)"/>
     <use xlink:href="#DejaVuSans-69" transform="translate(684.835938 0)"/>
     <use xlink:href="#DejaVuSans-74" transform="translate(712.619141 0)"/>
     <use xlink:href="#DejaVuSans-65" transform="translate(751.828125 0)"/>
     <use xlink:href="#DejaVuSans-72" transform="translate(813.351562 0)"/>
     <use xlink:href="#DejaVuSans-61" transform="translate(854.464844 0)"/>
     <use xlink:href="#DejaVuSans-6c" transform="translate(915.744141 0)"/>
     <use xlink:href="#DejaVuSans-20" transform="translate(943.527344 0)"/>
     <use xlink:href="#DejaVuSans-74" transform="translate(975.314453 0)"/>
     <use xlink:href="#DejaVuSans-6f" transform="translate(1014.523438 0)"/>
     <use xlink:href="#DejaVuSans-20" transform="translate(1075.705078 0)"/>
     <use xlink:href="#DejaVuSans-49" transform="translate(1107.492188 0)"/>
     <use xlink:href="#DejaVuSans-43" transform="translate(1136.984375 0)"/>
     <use xlink:href="#DejaVuSans-44" transform="translate(1206.808594 0)"/>
     <use xlink:href="#DejaVuSans-2d" transform="translate(1283.810547 0)"/>
     <use xlink:href="#DejaVuSans-31" transform="translate(1319.894531 0)"/>
     <use xlink:href="#DejaVuSans-30" transform="translate(1383.517578 0)"/>
     <use xlink:href="#DejaVuSans-20" transform="translate(1447.140625 0)"/>
     <use xlink:href="#DejaVuSans-63" transform="translate(1478.927734 0)"/>
     <use xlink:href="#DejaVuSans-61" transform="translate(1533.908203 0)"/>
     <use xlink:href="#DejaVuSans-74" transform="translate(1595.1875 0)"/>
     <use xlink:href="#DejaVuSans-65" transform="translate(1634.396484 0)"/>
     <use xlink:href="#DejaVuSans-67" transform="translate(1695.919922 0)"/>
     <use xlink:href="#DejaVuSans-6f" transform="translate(1759.396484 0)"/>
     <use xlink:href="#DejaVuSans-72" transform="translate(1820.578125 0)"/>
     <use xlink:href="#DejaVuSans-79" transform="translate(1861.691406 0)"/>
     <use xlink:href="#DejaVuSans-2d" transform="translate(1919.121094 0)"/>
     <use xlink:href="#DejaVuSans-70" transform="translate(1955.205078 0)"/>
     <use xlink:href="#DejaVuSans-72" transform="translate(2018.681641 0)"/>
     <use xlink:href="#DejaVuSans-65" transform="translate(2057.544922 0)"/>
     <use xlink:href="#DejaVuSans-66" transform="translate(2119.068359 0)"/>
     <use xlink:href="#DejaVuSans-69" transform="translate(2154.273438 0)"/>
     <use xlink:href="#DejaVuSans-78" transform="translate(2182.056641 0)"/>
     <use xlink:href="#DejaVuSans-20" transform="translate(2241.236328 0)"/>
     <use xlink:href="#DejaVuSans-73" transform="translate(2273.023438 0)"/>
     <use xlink:href="#DejaVuSans-75" transform="translate(2325.123047 0)"/>
     <use xlink:href="#DejaVuSans-62" transform="translate(2388.501953 0)"/>
     <use xlink:href="#DejaVuSans-6d" transform="translate(2451.978516 0)"/>
     <use xlink:href="#DejaVuSans-69" transform="translate(2549.390625 0)"/>
     <use xlink:href="#DejaVuSans-73" transform="translate(2577.173828 0)"/>
     <use xlink:href="#DejaVuSans-73" transform="translate(2629.273438 0)"/>
     <use xlink:href="#DejaVuSans-69" transform="translate(2681.373047 0)"/>
     <use xlink:href="#DejaVuSans-6f" transform="translate(2709.15625 0)"/>
     <use xlink:href="#DejaVuSans-6e" transform="translate(2770.337891 0)"/>
    </g>
   </g>
   <g id="text_21">
    <!-- Team 10 · NLP-I · UAB 2025–2026 -->
    <g style="fill: #64748b" transform="translate(815.19308 315) scale(0.09 -0.09)">
     <defs>
      <path id="DejaVuSans-b7" d="M 684 2619 
L 1344 2619 
L 1344 1825 
L 684 1825 
L 684 2619 
z
" transform="scale(0.015625)"/>
      <path id="DejaVuSans-4e" d="M 628 4666 
L 1478 4666 
L 3547 763 
L 3547 4666 
L 4159 4666 
L 4159 0 
L 3309 0 
L 1241 3903 
L 1241 0 
L 628 0 
L 628 4666 
z
" transform="scale(0.015625)"/>
      <path id="DejaVuSans-55" d="M 556 4666 
L 1191 4666 
L 1191 1831 
Q 1191 1081 1462 751 
Q 1734 422 2344 422 
Q 2950 422 3222 751 
Q 3494 1081 3494 1831 
L 3494 4666 
L 4128 4666 
L 4128 1753 
Q 4128 841 3676 375 
Q 3225 -91 2344 -91 
Q 1459 -91 1007 375 
Q 556 841 556 1753 
L 556 4666 
z
" transform="scale(0.015625)"/>
      <path id="DejaVuSans-41" d="M 2188 4044 
L 1331 1722 
L 3047 1722 
L 2188 4044 
z
M 1831 4666 
L 2547 4666 
L 4325 0 
L 3669 0 
L 3244 1197 
L 1141 1197 
L 716 0 
L 50 0 
L 1831 4666 
z
" transform="scale(0.015625)"/>
      <path id="DejaVuSans-32" d="M 1228 531 
L 3431 531 
L 3431 0 
L 469 0 
L 469 531 
Q 828 903 1448 1529 
Q 2069 2156 2228 2338 
Q 2531 2678 2651 2914 
Q 2772 3150 2772 3378 
Q 2772 3750 2511 3984 
Q 2250 4219 1831 4219 
Q 1534 4219 1204 4116 
Q 875 4013 500 3803 
L 500 4441 
Q 881 4594 1212 4672 
Q 1544 4750 1819 4750 
Q 2544 4750 2975 4387 
Q 3406 4025 3406 3419 
Q 3406 3131 3298 2873 
Q 3191 2616 2906 2266 
Q 2828 2175 2409 1742 
Q 1991 1309 1228 531 
z
" transform="scale(0.015625)"/>
      <path id="DejaVuSans-35" d="M 691 4666 
L 3169 4666 
L 3169 4134 
L 1269 4134 
L 1269 2991 
Q 1406 3038 1543 3061 
Q 1681 3084 1819 3084 
Q 2600 3084 3056 2656 
Q 3513 2228 3513 1497 
Q 3513 744 3044 326 
Q 2575 -91 1722 -91 
Q 1428 -91 1123 -41 
Q 819 9 494 109 
L 494 744 
Q 775 591 1075 516 
Q 1375 441 1709 441 
Q 2250 441 2565 725 
Q 2881 1009 2881 1497 
Q 2881 1984 2565 2268 
Q 2250 2553 1709 2553 
Q 1456 2553 1204 2497 
Q 953 2441 691 2322 
L 691 4666 
z
" transform="scale(0.015625)"/>
      <path id="DejaVuSans-2013" d="M 313 1978 
L 2888 1978 
L 2888 1528 
L 313 1528 
L 313 1978 
z
" transform="scale(0.015625)"/>
     </defs>
     <use xlink:href="#DejaVuSans-54"/>
     <use xlink:href="#DejaVuSans-65" transform="translate(44.083984 0)"/>
     <use xlink:href="#DejaVuSans-61" transform="translate(105.607422 0)"/>
     <use xlink:href="#DejaVuSans-6d" transform="translate(166.886719 0)"/>
     <use xlink:href="#DejaVuSans-20" transform="translate(264.298828 0)"/>
     <use xlink:href="#DejaVuSans-31" transform="translate(296.085938 0)"/>
     <use xlink:href="#DejaVuSans-30" transform="translate(359.708984 0)"/>
     <use xlink:href="#DejaVuSans-20" transform="translate(423.332031 0)"/>
     <use xlink:href="#DejaVuSans-b7" transform="translate(455.119141 0)"/>
     <use xlink:href="#DejaVuSans-20" transform="translate(486.90625 0)"/>
     <use xlink:href="#DejaVuSans-4e" transform="translate(518.693359 0)"/>
     <use xlink:href="#DejaVuSans-4c" transform="translate(593.498047 0)"/>
     <use xlink:href="#DejaVuSans-50" transform="translate(649.210938 0)"/>
     <use xlink:href="#DejaVuSans-2d" transform="translate(707.263672 0)"/>
     <use xlink:href="#DejaVuSans-49" transform="translate(743.347656 0)"/>
     <use xlink:href="#DejaVuSans-20" transform="translate(772.839844 0)"/>
     <use xlink:href="#DejaVuSans-b7" transform="translate(804.626953 0)"/>
     <use xlink:href="#DejaVuSans-20" transform="translate(836.414062 0)"/>
     <use xlink:href="#DejaVuSans-55" transform="translate(868.201172 0)"/>
     <use xlink:href="#DejaVuSans-41" transform="translate(941.394531 0)"/>
     <use xlink:href="#DejaVuSans-42" transform="translate(1009.802734 0)"/>
     <use xlink:href="#DejaVuSans-20" transform="translate(1078.40625 0)"/>
     <use xlink:href="#DejaVuSans-32" transform="translate(1110.193359 0)"/>
     <use xlink:href="#DejaVuSans-30" transform="translate(1173.816406 0)"/>
     <use xlink:href="#DejaVuSans-32" transform="translate(1237.439453 0)"/>
     <use xlink:href="#DejaVuSans-35" transform="translate(1301.0625 0)"/>
     <use xlink:href="#DejaVuSans-2013" transform="translate(1364.685547 0)"/>
     <use xlink:href="#DejaVuSans-32" transform="translate(1414.685547 0)"/>
     <use xlink:href="#DejaVuSans-30" transform="translate(1478.308594 0)"/>
     <use xlink:href="#DejaVuSans-32" transform="translate(1541.931641 0)"/>
     <use xlink:href="#DejaVuSans-36" transform="translate(1605.554688 0)"/>
    </g>
   </g>
  </g>
 </g>
 <defs>
  <clipPath id="pa901158d21">
   <rect x="7.2" y="7.2" width="986.4" height="324"/>
  </clipPath>
 </defs>
</svg>
